<svg width="70" height="70" viewBox="0 0 70 70" fill="none" xmlns="http://www.w3.org/2000/svg">
<path d="M67.5742 44.4804C67.1322 43.9311 66.5236 43.5404 65.8402 43.3672C65.1568 43.194 64.4355 43.2477 63.7853 43.5203L43.6036 51.9918L41.8049 52.5117C41.1657 52.6967 40.5075 52.8088 39.8431 52.8456C38.4011 52.9234 36.3008 52.9651 35.9365 52.9898H24.084C23.8907 52.9894 23.7034 52.9232 23.5528 52.802C23.4034 52.7119 23.2795 52.5851 23.1928 52.4337C23.1062 52.2823 23.0596 52.1113 23.0576 51.9368C23.0663 51.6541 23.1869 51.3864 23.3929 51.1925C23.5989 50.9986 23.8734 50.8944 24.1561 50.9028H37.5872C38.4131 50.903 39.2103 50.6003 39.8279 50.052C40.4454 49.5037 40.8404 48.7479 40.9379 47.9278C40.9547 47.795 40.963 47.6613 40.9625 47.5275C40.9628 46.7454 40.6914 45.9875 40.1948 45.3832C39.6982 44.779 39.0072 44.366 38.2399 44.2147C30.7417 42.7405 23.3194 40.9684 15.6201 41.4655C15.3203 41.4845 12.6186 41.5946 11.188 41.7255V61.6643L11.262 63.3282C13.9355 63.6541 31.9877 65.8625 32.2831 65.915C35.1466 66.4234 38.0089 66.2873 40.7377 64.6608C40.7506 64.6526 40.7639 64.645 40.7776 64.6381C40.7776 64.6381 58.8864 54.4185 66.821 49.2369C67.2009 48.9888 67.5245 48.6638 67.7711 48.283C68.0178 47.9021 68.1818 47.4738 68.2528 47.0257C68.3237 46.5776 68.3 46.1196 68.1832 45.6812C68.0663 45.2427 67.8589 44.8337 67.5742 44.4804V44.4804Z" fill="#FFEEA3"/>
<path d="M8.98467 39.3997H1.70703V63.3432H8.98467V39.3997Z" fill="#353B48"/>
<path d="M32.3679 23.9662H40.5171V32.1153C40.5162 32.6412 40.6191 33.162 40.8197 33.6481C41.0203 34.1342 41.3148 34.5759 41.6864 34.9481C42.0579 35.3202 42.4991 35.6154 42.9849 35.8169C43.4706 36.0183 43.9913 36.122 44.5171 36.122C45.043 36.122 45.5637 36.0183 46.0494 35.8169C46.5352 35.6154 46.9764 35.3202 47.3479 34.9481C47.7195 34.5759 48.014 34.1342 48.2146 33.6481C48.4152 33.162 48.5181 32.6412 48.5172 32.1153V23.9662H56.6664C57.7261 23.9644 58.7418 23.5422 59.4905 22.7922C60.2393 22.0423 60.6598 21.0259 60.6598 19.9661C60.6598 18.9064 60.2393 17.89 59.4905 17.14C58.7418 16.3901 57.7261 15.9678 56.6664 15.9661H48.5172V7.81691C48.5154 6.75718 48.0932 5.74146 47.3433 4.99273C46.5933 4.24401 45.5769 3.82349 44.5172 3.82349C43.4574 3.82349 42.441 4.24401 41.691 4.99273C40.9411 5.74146 40.5189 6.75718 40.5171 7.81691V15.9661H32.3679C31.3082 15.9678 30.2925 16.39 29.5438 17.14C28.795 17.89 28.3745 18.9064 28.3745 19.9661C28.3745 21.0259 28.795 22.0423 29.5438 22.7922C30.2925 23.5422 31.3082 23.9644 32.3679 23.9662V23.9662Z" fill="#FF3333"/>
</svg>
