<svg width="1398" height="578" viewBox="0 0 1398 578" fill="none" xmlns="http://www.w3.org/2000/svg">
<g clip-path="url(#clip0)">
<path d="M804.557 268H694.557V391H804.557V268Z" fill="#CCCCCC"/>
<path d="M751.007 541.232L749.117 567.067C749.032 568.237 749.197 569.411 749.603 570.511C750.008 571.611 750.644 572.612 751.468 573.446C752.292 574.281 753.285 574.929 754.38 575.348C755.475 575.767 756.647 575.947 757.817 575.876L771.087 575.073C771.702 575.035 772.301 574.863 772.842 574.568C773.383 574.273 773.852 573.863 774.216 573.366C774.58 572.869 774.831 572.298 774.949 571.694C775.068 571.089 775.052 570.466 774.903 569.868L767.537 540.406L751.007 541.232Z" fill="#E6E6E6"/>
<path d="M862.003 556.509C877.62 560.163 888.777 565.356 896.106 572.384C898.716 574.867 902.131 576.331 905.729 576.509C910.326 576.751 914.084 576.236 916.909 574.974H916.909C917.633 574.655 918.258 574.148 918.719 573.506C919.181 572.864 919.462 572.111 919.534 571.323C919.62 570.523 919.49 569.715 919.157 568.982C918.825 568.25 918.303 567.619 917.645 567.156L880.606 540.802L864.873 547.096L861.203 550.766C860.805 551.163 860.505 551.648 860.327 552.18C860.148 552.713 860.096 553.28 860.173 553.837C860.251 554.393 860.456 554.924 860.774 555.388C861.091 555.852 861.512 556.236 862.003 556.509H862.003Z" fill="#E6E6E6"/>
<path d="M813.94 134.695L708.067 133.714C708.333 118.294 711.921 103.151 719.764 89.6005C724.914 80.701 724.803 71.0158 723.562 62.8561C721.646 50.2641 726.101 37.3806 735.999 29.3649C743.563 23.2286 753.11 20.0698 762.842 20.4836L764.897 20.5692C771.594 20.8475 778.113 22.8036 783.856 26.258C789.6 29.7123 794.383 34.5542 797.768 40.3391C801.208 46.5146 802.595 53.624 801.729 60.6398C801.058 67.2411 802.664 73.9096 806.42 80.6416C812.9 95.4242 814.303 114.34 813.94 134.695Z" fill="#2F2E41"/>
<path d="M884.775 542.176L863.996 547.597L762.812 327.161L769.136 542.176H748.358C726.154 441.017 686.067 324.269 704.09 287.41L811.597 281.086L884.775 542.176Z" fill="#6C63FF"/>
<path d="M761.909 97.6912C777.376 97.6912 789.915 85.1524 789.915 69.685C789.915 54.2176 777.376 41.6788 761.909 41.6788C746.442 41.6788 733.903 54.2176 733.903 69.685C733.903 85.1524 746.442 97.6912 761.909 97.6912Z" fill="#FFB9B9"/>
<path d="M786.301 121.18L740.227 118.47C744.742 108.106 746.546 98.1264 744.744 88.657H779.074C778.996 95.9276 782.614 108.504 786.301 121.18Z" fill="#FFB9B9"/>
<path d="M815.211 289.217L714.028 296.445L724.417 117.115L742.034 112.146L761.909 116.663L781.784 106.725L794.432 111.243L815.211 289.217Z" fill="#6C63FF"/>
<path d="M731.193 418.407L662.081 402.597C682.631 334.449 719.654 178.546 707.704 122.987L743.841 106.725L731.193 418.407Z" fill="#E6E6E6"/>
<path d="M697.766 221.46L671.567 205.199L693.91 139.759C696.402 133.007 701.175 127.337 707.404 123.731L714.931 119.373L710.414 185.323L697.766 221.46Z" fill="#E6E6E6"/>
<path d="M875.289 403.501C853.476 416.121 798.95 423.156 775.009 414.342C773.247 352.769 769.792 178.603 780.881 104.919L820.632 121.18L817.018 169.965C798.014 211.698 853.198 357.054 875.289 403.501Z" fill="#E6E6E6"/>
<path d="M872.127 213.33L847.734 205.199L815.211 168.158L820.632 121.18L874.837 197.068L872.127 213.33Z" fill="#E6E6E6"/>
<path d="M795.681 248.494C796.08 250.245 797.158 251.767 798.677 252.725C800.196 253.684 802.034 254 803.786 253.606L824.492 248.917L821.5 235.7L800.793 240.389C799.041 240.786 797.518 241.863 796.559 243.383C795.6 244.903 795.285 246.741 795.681 248.494V248.494Z" fill="#FFB9B9"/>
<path d="M786.301 62.4576C770.746 56.0611 755.382 55.5982 740.227 61.5541L733.903 38.9685H791.722L786.301 62.4576Z" fill="#2F2E41"/>
<path d="M814.308 233.205L826.052 254.887C845.806 249.378 862.926 232.008 879.354 211.523L874.837 197.068L846.831 204.295L814.308 233.205Z" fill="#E6E6E6"/>
<path d="M805.725 188.485H802.112C802.112 137.375 791.588 101.757 781.333 101.757L780.429 98.1429C789.626 98.1429 795.49 112.967 798.789 125.403C803.262 142.263 805.725 164.666 805.725 188.485Z" fill="#3F3D56"/>
<path d="M722.61 175.838H718.996C718.996 129.028 729.593 99.9498 745.196 99.9498L744.292 103.564C733.5 103.564 722.61 125.911 722.61 175.838Z" fill="#3F3D56"/>
<path d="M803.918 198.423C808.908 198.423 812.953 194.378 812.953 189.389C812.953 184.399 808.908 180.355 803.918 180.355C798.929 180.355 794.884 184.399 794.884 189.389C794.884 194.378 798.929 198.423 803.918 198.423Z" fill="#3F3D56"/>
<path d="M708.155 197.52H704.542C704.542 184.568 711.837 174.031 720.803 174.031V177.644C713.829 177.644 708.155 186.56 708.155 197.52Z" fill="#3F3D56"/>
<path d="M737.065 197.52H733.451C733.451 186.56 727.777 177.644 720.803 177.644V174.031C729.77 174.031 737.065 184.568 737.065 197.52Z" fill="#3F3D56"/>
<path d="M735.258 202.037C737.254 202.037 738.872 200.419 738.872 198.423C738.872 196.427 737.254 194.809 735.258 194.809C733.262 194.809 731.644 196.427 731.644 198.423C731.644 200.419 733.262 202.037 735.258 202.037Z" fill="#3F3D56"/>
<path d="M706.348 202.037C708.344 202.037 709.962 200.419 709.962 198.423C709.962 196.427 708.344 194.809 706.348 194.809C704.353 194.809 702.735 196.427 702.735 198.423C702.735 200.419 704.353 202.037 706.348 202.037Z" fill="#3F3D56"/>
<path d="M661.177 165.193L683.724 169.219L735.258 242.495L707.88 236.053L661.177 165.193Z" fill="#6C63FF"/>
<path d="M657.178 164.296C656.834 164.301 656.498 164.398 656.205 164.578C655.912 164.757 655.673 165.012 655.512 165.316C655.351 165.619 655.275 165.961 655.291 166.304C655.307 166.647 655.416 166.98 655.604 167.267L703.776 240.355C704.045 240.763 704.46 241.053 704.936 241.165L727.349 246.438C727.726 246.527 728.122 246.499 728.484 246.358C728.846 246.217 729.156 245.969 729.373 245.647C729.591 245.326 729.705 244.945 729.702 244.557C729.698 244.169 729.576 243.791 729.353 243.474L676.464 168.272C676.32 168.067 676.138 167.892 675.927 167.758C675.716 167.624 675.481 167.532 675.234 167.489L657.539 164.329C657.42 164.307 657.299 164.296 657.178 164.296V164.296Z" fill="#3F3D56"/>
<path d="M687.227 216.553L688.566 230.038L709.693 227.941C711.481 227.764 713.125 226.883 714.264 225.493C715.403 224.103 715.944 222.317 715.766 220.529C715.589 218.741 714.708 217.096 713.318 215.957C711.928 214.818 710.142 214.278 708.354 214.456L687.227 216.553Z" fill="#FFB9B9"/>
<path d="M668.857 214.991C668.887 219.589 670.734 223.989 673.995 227.231C677.255 230.474 681.665 232.296 686.263 232.302H689.737L692.266 211.226L671.326 203.688L668.857 214.991Z" fill="#E6E6E6"/>
<path d="M1397.56 0H985.557V217H1397.56V0Z" fill="#E6E6E6"/>
<path d="M997.557 205H1385.56V12H997.557V205Z" fill="white"/>
<path d="M1165.56 40H1027.56V178H1165.56V40Z" fill="#3F3D56"/>
<path d="M1132.56 103C1134.77 103 1136.56 101.209 1136.56 99C1136.56 96.7909 1134.77 95 1132.56 95C1130.35 95 1128.56 96.7909 1128.56 99C1128.56 101.209 1130.35 103 1132.56 103Z" fill="#6C63FF"/>
<path d="M1117.56 89C1119.77 89 1121.56 87.2091 1121.56 85C1121.56 82.7909 1119.77 81 1117.56 81C1115.35 81 1113.56 82.7909 1113.56 85C1113.56 87.2091 1115.35 89 1117.56 89Z" fill="#6C63FF"/>
<path d="M1115.56 99C1114.08 99.0003 1112.64 99.4091 1111.39 100.181C1110.29 98.5211 1108.99 96.9984 1107.52 95.6452C1107.54 95.4317 1107.56 95.2178 1107.56 95C1107.56 93.4304 1107.1 91.8951 1106.23 90.5857C1105.37 89.2763 1104.13 88.2507 1102.69 87.6368C1101.24 87.0229 1099.65 86.8478 1098.11 87.1335C1096.56 87.4192 1095.14 88.1529 1094.01 89.2431C1091.87 88.9391 1089.69 88.9201 1087.55 89.1867C1087.55 89.124 1087.56 89.0631 1087.56 89C1087.56 87.661 1087.22 86.3429 1086.58 85.1667C1085.94 83.9905 1085.02 82.9937 1083.89 82.2677C1082.77 81.5418 1081.48 81.1098 1080.14 81.0116C1078.81 80.9133 1077.47 81.1518 1076.25 81.7052C1075.03 82.2586 1073.97 83.1093 1073.16 84.1792C1072.36 85.249 1071.84 86.5039 1071.64 87.8288C1071.45 89.1537 1071.59 90.5061 1072.05 91.7622C1072.52 93.0183 1073.29 94.1378 1074.3 95.0181C1072.96 96.1654 1071.74 97.4503 1070.67 98.8518C1069.69 98.03 1068.51 97.4582 1067.26 97.1847C1066 96.9111 1064.7 96.9439 1063.46 97.2802C1062.22 97.6165 1061.08 98.2465 1060.14 99.1168C1059.19 99.9872 1058.47 101.072 1058.03 102.28C1057.6 103.488 1057.46 104.784 1057.63 106.057C1057.8 107.331 1058.27 108.544 1059.01 109.596C1059.75 110.647 1060.73 111.506 1061.87 112.098C1063.01 112.691 1064.27 113 1065.56 113L1065.58 112.999C1065.57 113.331 1065.56 113.664 1065.56 114C1065.56 116.013 1065.8 118.018 1066.28 119.973C1063.9 120.868 1061.79 122.352 1060.14 124.286C1058.5 126.22 1057.37 128.541 1056.87 131.031C1056.36 133.521 1056.5 136.098 1057.26 138.52C1058.03 140.943 1059.39 143.131 1061.24 144.88C1063.08 146.629 1065.34 147.881 1067.8 148.519C1070.25 149.157 1072.83 149.16 1075.29 148.528C1077.76 147.895 1080.01 146.648 1081.86 144.903C1083.71 143.158 1085.08 140.972 1085.85 138.551C1091.41 139.621 1097.18 138.766 1102.19 136.127C1102.7 137.332 1103.5 138.394 1104.52 139.218C1105.54 140.042 1106.74 140.603 1108.03 140.853C1109.32 141.103 1110.64 141.033 1111.9 140.65C1113.15 140.267 1114.29 139.583 1115.21 138.657C1116.14 137.731 1116.82 136.591 1117.21 135.339C1117.59 134.086 1117.66 132.759 1117.41 131.473C1117.16 130.188 1116.6 128.983 1115.77 127.965C1114.95 126.947 1113.89 126.147 1112.68 125.635C1114.42 122.347 1115.39 118.712 1115.53 114.999L1115.56 115C1117.68 115 1119.71 114.157 1121.21 112.657C1122.71 111.157 1123.56 109.122 1123.56 107C1123.56 104.878 1122.71 102.843 1121.21 101.343C1119.71 99.8429 1117.68 99 1115.56 99V99Z" fill="#6C63FF"/>
<path d="M1113.56 37H1073.56V43H1113.56V37Z" fill="#E6E6E6"/>
<path d="M1341.56 40H1203.56V178H1341.56V40Z" fill="#3F3D56"/>
<path d="M1298.76 133.6C1299.75 133.6 1300.56 132.794 1300.56 131.8C1300.56 130.806 1299.75 130 1298.76 130C1297.76 130 1296.96 130.806 1296.96 131.8C1296.96 132.794 1297.76 133.6 1298.76 133.6Z" fill="#6C63FF"/>
<path d="M1292.01 127.3C1293 127.3 1293.81 126.494 1293.81 125.5C1293.81 124.506 1293 123.7 1292.01 123.7C1291.01 123.7 1290.21 124.506 1290.21 125.5C1290.21 126.494 1291.01 127.3 1292.01 127.3Z" fill="#6C63FF"/>
<path d="M1291.11 131.8C1290.44 131.8 1289.8 131.984 1289.23 132.331C1288.73 131.585 1288.15 130.899 1287.49 130.29C1287.5 130.194 1287.51 130.098 1287.51 130C1287.51 129.294 1287.3 128.603 1286.91 128.014C1286.52 127.424 1285.97 126.963 1285.32 126.687C1284.67 126.41 1283.95 126.332 1283.25 126.46C1282.56 126.589 1281.92 126.919 1281.41 127.409C1280.45 127.273 1279.47 127.264 1278.5 127.384C1278.5 127.356 1278.51 127.328 1278.51 127.3C1278.51 126.697 1278.36 126.104 1278.07 125.575C1277.78 125.046 1277.36 124.597 1276.86 124.271C1276.35 123.944 1275.77 123.749 1275.17 123.705C1274.57 123.661 1273.97 123.768 1273.42 124.017C1272.87 124.266 1272.39 124.649 1272.03 125.131C1271.67 125.612 1271.43 126.177 1271.34 126.773C1271.26 127.369 1271.32 127.978 1271.53 128.543C1271.74 129.108 1272.09 129.612 1272.54 130.008C1271.94 130.524 1271.39 131.103 1270.91 131.733C1270.46 131.364 1269.94 131.106 1269.37 130.983C1268.81 130.86 1268.22 130.875 1267.66 131.026C1267.11 131.178 1266.59 131.461 1266.17 131.853C1265.74 132.244 1265.42 132.733 1265.22 133.276C1265.02 133.82 1264.96 134.403 1265.04 134.976C1265.11 135.549 1265.33 136.095 1265.66 136.568C1265.99 137.041 1266.43 137.428 1266.95 137.694C1267.46 137.961 1268.03 138.1 1268.61 138.1L1268.62 138.099C1268.61 138.249 1268.61 138.399 1268.61 138.55C1268.61 139.456 1268.72 140.358 1268.93 141.238C1267.86 141.64 1266.91 142.308 1266.17 143.179C1265.43 144.049 1264.92 145.093 1264.7 146.214C1264.47 147.334 1264.53 148.494 1264.87 149.584C1265.22 150.674 1265.83 151.659 1266.66 152.446C1267.49 153.233 1268.51 153.797 1269.61 154.084C1270.72 154.371 1271.88 154.372 1272.99 154.087C1274.1 153.803 1275.11 153.241 1275.94 152.456C1276.77 151.671 1277.39 150.687 1277.74 149.598C1280.24 150.079 1282.84 149.695 1285.09 148.507C1285.32 149.05 1285.68 149.527 1286.14 149.898C1286.6 150.269 1287.14 150.522 1287.72 150.634C1288.3 150.746 1288.9 150.715 1289.46 150.543C1290.02 150.37 1290.54 150.062 1290.95 149.646C1291.37 149.229 1291.68 148.716 1291.85 148.153C1292.02 147.589 1292.05 146.992 1291.94 146.413C1291.83 145.834 1291.58 145.292 1291.2 144.834C1290.83 144.376 1290.36 144.016 1289.81 143.786C1290.59 142.306 1291.03 140.671 1291.1 138.999L1291.11 139C1292.06 139 1292.98 138.621 1293.65 137.946C1294.33 137.271 1294.71 136.355 1294.71 135.4C1294.71 134.445 1294.33 133.53 1293.65 132.854C1292.98 132.179 1292.06 131.8 1291.11 131.8V131.8Z" fill="#6C63FF"/>
<path d="M1312.88 99.4417C1313.87 99.4417 1314.68 98.6358 1314.68 97.6417C1314.68 96.6476 1313.87 95.8417 1312.88 95.8417C1311.88 95.8417 1311.08 96.6476 1311.08 97.6417C1311.08 98.6358 1311.88 99.4417 1312.88 99.4417Z" fill="#6C63FF"/>
<path d="M1317.11 91.2367C1318.11 91.2367 1318.91 90.4308 1318.91 89.4367C1318.91 88.4426 1318.11 87.6367 1317.11 87.6367C1316.12 87.6367 1315.31 88.4426 1315.31 89.4367C1315.31 90.4308 1316.12 91.2367 1317.11 91.2367Z" fill="#6C63FF"/>
<path d="M1310.8 90.2782C1310.63 89.6407 1310.27 89.0656 1309.78 88.6169C1310.37 87.9363 1310.87 87.1886 1311.28 86.3896C1311.37 86.371 1311.47 86.3516 1311.56 86.325C1312.24 86.134 1312.85 85.7471 1313.31 85.2124C1313.77 84.6778 1314.07 84.0191 1314.16 83.3184C1314.25 82.6178 1314.13 81.9063 1313.82 81.2726C1313.5 80.6389 1313.01 80.1111 1312.4 79.7549C1312.27 78.7899 1312.02 77.8463 1311.64 76.9488C1311.67 76.9418 1311.69 76.9378 1311.72 76.9301C1312.3 76.7675 1312.83 76.4618 1313.26 76.0411C1313.69 75.6205 1314.01 75.0982 1314.19 74.5223C1314.37 73.9464 1314.4 73.3352 1314.28 72.7447C1314.16 72.1543 1313.89 71.6035 1313.5 71.1429C1313.11 70.6822 1312.61 70.3265 1312.05 70.1082C1311.49 69.8899 1310.88 69.8161 1310.29 69.8935C1309.69 69.9709 1309.12 70.1971 1308.63 70.5513C1308.15 70.9055 1307.75 71.3764 1307.5 71.9209C1306.84 71.4807 1306.13 71.1113 1305.39 70.8186C1305.63 70.2906 1305.73 69.7137 1305.7 69.1367C1305.66 68.5596 1305.49 67.9994 1305.19 67.5034C1304.9 67.0074 1304.49 66.5902 1303.99 66.2871C1303.5 65.984 1302.94 65.8039 1302.37 65.762C1301.79 65.7202 1301.21 65.8178 1300.68 66.0466C1300.15 66.2754 1299.68 66.6288 1299.32 67.0767C1298.95 67.5246 1298.7 68.0539 1298.58 68.6199C1298.46 69.1859 1298.48 69.7719 1298.64 70.3284L1298.65 70.3392C1298.5 70.3741 1298.35 70.4094 1298.21 70.4504C1297.34 70.696 1296.5 71.0459 1295.71 71.4923C1295.03 70.5716 1294.13 69.8382 1293.09 69.3608C1292.05 68.8834 1290.91 68.6777 1289.77 68.763C1288.63 68.8484 1287.53 69.222 1286.58 69.8487C1285.62 70.4755 1284.84 71.3349 1284.31 72.3463C1283.77 73.3576 1283.51 74.4878 1283.53 75.6307C1283.55 76.7736 1283.87 77.8918 1284.44 78.8803C1285.01 79.8688 1285.83 80.6952 1286.81 81.2819C1287.79 81.8687 1288.91 82.1966 1290.05 82.2349C1290.26 84.7757 1291.34 87.1677 1293.09 89.0179C1292.63 89.3867 1292.27 89.8627 1292.04 90.4042C1291.81 90.9456 1291.71 91.5359 1291.76 92.1233C1291.81 92.7107 1292 93.2771 1292.32 93.7729C1292.64 94.2687 1293.07 94.6786 1293.59 94.9668C1294.1 95.255 1294.68 95.4125 1295.27 95.4256C1295.86 95.4388 1296.44 95.307 1296.96 95.042C1297.49 94.777 1297.94 94.3868 1298.29 93.9057C1298.63 93.4246 1298.84 92.8672 1298.92 92.2826C1300.55 92.632 1302.25 92.6101 1303.87 92.2187L1303.87 92.2298C1304 92.6852 1304.22 93.1109 1304.51 93.4826C1304.8 93.8544 1305.17 94.1648 1305.58 94.3962C1305.99 94.6276 1306.45 94.7755 1306.92 94.8314C1307.38 94.8872 1307.86 94.85 1308.32 94.7218C1308.77 94.5935 1309.2 94.3769 1309.57 94.0841C1309.94 93.7914 1310.25 93.4283 1310.48 93.0156C1310.71 92.6029 1310.86 92.1488 1310.92 91.6791C1310.97 91.2093 1310.93 90.7333 1310.8 90.2781V90.2782Z" fill="#6C63FF"/>
<path d="M1243.16 74.9815C1244.16 74.9815 1244.96 74.1756 1244.96 73.1815C1244.96 72.1874 1244.16 71.3815 1243.16 71.3815C1242.17 71.3815 1241.36 72.1874 1241.36 73.1815C1241.36 74.1756 1242.17 74.9815 1243.16 74.9815Z" fill="#6C63FF"/>
<path d="M1233.96 75.7189C1234.95 75.7189 1235.76 74.913 1235.76 73.9189C1235.76 72.9248 1234.95 72.1189 1233.96 72.1189C1232.96 72.1189 1232.16 72.9248 1232.16 73.9189C1232.16 74.913 1232.96 75.7189 1233.96 75.7189Z" fill="#6C63FF"/>
<path d="M1238 78.8312C1237.56 79.3204 1237.26 79.924 1237.13 80.5746C1236.25 80.4378 1235.35 80.407 1234.45 80.4828C1234.39 80.4124 1234.32 80.3423 1234.25 80.2763C1233.73 79.7996 1233.08 79.487 1232.38 79.3774C1231.68 79.2678 1230.97 79.366 1230.32 79.6599C1229.68 79.9537 1229.14 80.4301 1228.77 81.0297C1228.39 81.6294 1228.2 82.3256 1228.22 83.0317C1227.47 83.6514 1226.81 84.3678 1226.24 85.1623C1226.22 85.1428 1226.21 85.1217 1226.19 85.1025C1225.74 84.6957 1225.2 84.407 1224.62 84.2628C1224.03 84.1186 1223.42 84.1235 1222.84 84.2772C1222.25 84.4309 1221.72 84.7284 1221.28 85.1424C1220.84 85.5564 1220.52 86.0736 1220.33 86.6468C1220.14 87.2199 1220.11 87.8306 1220.22 88.4228C1220.33 89.015 1220.59 89.5698 1220.97 90.0364C1221.35 90.5029 1221.84 90.8663 1222.4 91.0932C1222.96 91.3201 1223.56 91.4032 1224.16 91.335C1224.14 92.1281 1224.2 92.9217 1224.34 93.7027C1223.76 93.7815 1223.22 93.9971 1222.75 94.3313C1222.28 94.6654 1221.89 95.1082 1221.63 95.6223C1221.36 96.1364 1221.23 96.7066 1221.23 97.2847C1221.23 97.8628 1221.37 98.4317 1221.64 98.9434C1221.91 99.4551 1222.3 99.8945 1222.77 100.224C1223.25 100.554 1223.8 100.765 1224.37 100.839C1224.94 100.913 1225.52 100.847 1226.07 100.648C1226.61 100.449 1227.1 100.123 1227.49 99.6956L1227.49 99.6868C1227.6 99.792 1227.71 99.8971 1227.82 99.999C1228.49 100.61 1229.23 101.137 1230.02 101.571C1229.6 102.632 1229.45 103.784 1229.6 104.918C1229.74 106.053 1230.17 107.132 1230.84 108.055C1231.52 108.978 1232.41 109.714 1233.45 110.195C1234.49 110.676 1235.63 110.885 1236.77 110.804C1237.91 110.722 1239.01 110.352 1239.97 109.728C1240.93 109.105 1241.71 108.248 1242.25 107.238C1242.78 106.229 1243.06 105.1 1243.04 103.957C1243.02 102.814 1242.71 101.694 1242.13 100.704C1244.18 99.1791 1245.64 97.0045 1246.29 94.5373C1246.84 94.7329 1247.44 94.789 1248.02 94.7007C1248.6 94.6124 1249.16 94.3825 1249.63 94.031C1250.1 93.6795 1250.48 93.2172 1250.73 92.6848C1250.99 92.1523 1251.11 91.566 1251.08 90.9773C1251.05 90.3885 1250.88 89.8153 1250.58 89.308C1250.28 88.8008 1249.86 88.3749 1249.36 88.0678C1248.86 87.7608 1248.28 87.5819 1247.7 87.5469C1247.11 87.5119 1246.52 87.6219 1245.98 87.8671C1245.42 86.2938 1244.5 84.8677 1243.31 83.6937L1243.32 83.6857C1243.64 83.3367 1243.89 82.9281 1244.05 82.4833C1244.21 82.0385 1244.28 81.5663 1244.26 81.0935C1244.24 80.6208 1244.13 80.1569 1243.93 79.7284C1243.73 79.2998 1243.44 78.915 1243.09 78.596C1242.74 78.2769 1242.33 78.0299 1241.89 77.8691C1241.44 77.7082 1240.97 77.6367 1240.5 77.6585C1240.03 77.6803 1239.56 77.7952 1239.14 77.9964C1238.71 78.1976 1238.32 78.4813 1238 78.8312V78.8312Z" fill="#6C63FF"/>
<path d="M1289.56 37H1249.56V43H1289.56V37Z" fill="#E6E6E6"/>
<path d="M734 73.5C735.5 96.5 779 114.5 789.5 73.5H734Z" fill="#E6E6E6" stroke="#E6E6E6"/>
</g>
<path d="M219.37 455.637C215.414 455.659 211.556 454.769 208.374 453.102C205.192 451.434 202.858 449.078 201.724 446.388C200.699 444.012 200.659 441.477 201.609 439.085C203.668 433.963 202.839 428.012 199.282 422.324L185.385 400.134L195.355 396.989C198.664 402.355 207.448 416.582 211.095 422.08C214.588 427.365 221.748 429.302 226.025 430.46C227.134 430.759 228.084 430.999 228.741 431.275C231.497 432.438 233.781 434.088 235.371 436.064C236.961 438.04 237.802 440.275 237.813 442.551C237.813 446.044 235.894 449.339 232.407 451.809C230.698 453.028 228.666 453.993 226.428 454.65C224.191 455.307 221.791 455.643 219.37 455.637Z" fill="#99C99E"/>
<path d="M193.723 399.98C197.624 406.306 204.911 418.057 208.207 423.039C212.249 429.148 220.154 431.288 224.878 432.564C225.681 432.782 226.784 433.08 227.115 433.216C229.397 434.177 231.289 435.542 232.605 437.178C233.921 438.813 234.617 440.663 234.625 442.547C234.622 445.418 233.013 448.17 230.153 450.201C227.293 452.231 223.415 453.372 219.37 453.375C216.101 453.402 212.91 452.672 210.278 451.296C207.646 449.92 205.717 447.974 204.784 445.75C203.93 443.784 203.892 441.686 204.675 439.705C206.938 434.076 206.059 427.573 202.195 421.401L189.598 401.279L193.723 399.98ZM197 393.993L181.183 398.984L196.375 423.243C199.365 428.021 200.576 433.433 198.549 438.465C197.436 441.268 197.478 444.239 198.67 447.026C200.748 452.067 206.664 456.153 213.849 457.416C215.723 457.746 217.572 457.9 219.37 457.9C224.115 457.901 228.729 456.794 232.501 454.75C236.273 452.707 238.994 449.839 240.243 446.589C241.493 443.34 241.202 439.889 239.416 436.768C237.63 433.648 234.448 431.03 230.36 429.32C227.141 427.967 217.859 426.976 213.976 421.112C209.444 414.261 197 393.993 197 393.993V393.993Z" fill="#5E9C76"/>
<path d="M186.812 360.943L194.278 354.318C199.582 349.612 201.998 344.191 201.067 339.051C200.725 337.064 201.044 335.048 201.998 333.164C204.025 329.028 208.876 325.829 214.646 324.82C217.34 324.328 220.156 324.273 222.885 324.659C225.614 325.044 228.185 325.86 230.41 327.046C232.634 328.232 234.455 329.758 235.736 331.511C237.017 333.264 237.727 335.199 237.812 337.173C237.94 340.802 235.097 344.648 230.22 347.467C227.536 349.015 224.973 349.961 222.366 350.368C214.754 351.54 208.513 354.128 204.318 357.843L195.361 365.789L186.812 360.943Z" fill="#99C99E"/>
<path d="M219.37 326.675C223.342 326.69 227.152 327.798 229.997 329.766C232.842 331.734 234.501 334.409 234.625 337.227C234.727 340.16 232.324 343.332 228.205 345.712C225.917 347.033 223.788 347.829 221.684 348.155C213.345 349.445 206.479 352.309 201.826 356.431L194.858 362.613L191.294 360.59L196.77 355.73C202.623 350.54 205.268 344.513 204.235 338.761C203.956 337.122 204.223 335.459 205.013 333.906C206.664 330.535 210.751 327.829 215.417 327.019C216.73 326.793 218.063 326.675 219.37 326.675V326.675ZM219.37 322.15C217.585 322.15 215.749 322.304 213.887 322.63C206.989 323.833 201.316 327.666 198.982 332.426C197.865 334.641 197.496 337.011 197.905 339.345C198.785 344.214 196.107 349.078 191.785 352.911L182.325 361.3L195.846 368.975L206.792 359.26C210.84 355.671 216.699 353.554 223.029 352.576C225.879 352.137 228.926 351.124 232.215 349.223C237.392 346.237 241.153 341.852 240.987 337.119C240.848 333.115 238.509 329.309 234.47 326.512C230.431 323.715 225.012 322.15 219.37 322.15V322.15Z" fill="#5E9C76"/>
<path d="M86.7824 381.206C85.247 380.958 83.6777 380.832 82.1032 380.83C78.9603 380.83 75.9577 381.364 73.4332 382.378C72.0412 382.937 70.4683 383.23 68.8687 383.228C66.3946 383.165 64.0517 382.423 62.3328 381.158C60.6139 379.893 59.6529 378.205 59.6521 376.448C59.6513 374.69 60.6106 373.001 62.3284 371.736C64.0461 370.47 66.3883 369.727 68.8623 369.662C71.6673 369.662 74.3193 370.54 76.1298 372.074C78.8009 374.332 82.8491 375.943 87.8534 376.74L122.451 382.219L121.067 386.636L86.7824 381.206V381.206Z" fill="#99C99E"/>
<path d="M68.8621 371.925C70.7236 371.925 72.4831 372.509 73.6879 373.531C76.7798 376.151 81.3953 378.016 87.0308 378.925C85.4116 378.688 83.7626 378.568 82.1093 378.568C78.4182 378.568 74.8737 379.201 71.8647 380.4C70.9489 380.768 69.9141 380.96 68.8621 380.957C67.1747 380.957 65.5564 380.481 64.3633 379.634C63.1701 378.787 62.4998 377.639 62.4998 376.441C62.4998 375.243 63.1701 374.095 64.3633 373.248C65.5564 372.401 67.1747 371.925 68.8621 371.925V371.925ZM68.8621 367.4C65.5537 367.474 62.4159 368.459 60.1126 370.147C57.8094 371.834 56.5215 374.092 56.5215 376.441C56.5215 378.79 57.8094 381.048 60.1126 382.735C62.4159 384.423 65.5537 385.408 68.8621 385.482C71.0933 385.482 73.1716 385.066 74.9821 384.346C77.1644 383.501 79.617 383.069 82.1029 383.093C83.4353 383.093 84.7741 383.206 86.0873 383.409L123.477 389.333L126.25 380.504L88.5481 374.531C84.7677 373.934 81.0638 372.735 78.5776 370.626C77.3901 369.616 75.9044 368.803 74.2255 368.246C72.5466 367.688 70.7156 367.4 68.8621 367.4V367.4Z" fill="#5E9C76"/>
<path d="M113.73 451.113C111.375 451.11 109.1 450.506 107.322 449.41C105.544 448.314 104.382 446.8 104.049 445.145C103.716 443.49 104.234 441.806 105.509 440.4C106.783 438.995 108.729 437.963 110.988 437.492C114.57 436.725 117.694 435.139 119.875 432.981C124.032 428.669 134.429 418.207 138.656 413.962L144.062 416.65C140.084 420.628 130.719 430.008 125.855 435.09C123.802 437.244 123.528 440.827 123.528 444.045C123.541 444.966 123.298 445.88 122.813 446.735C122.327 447.589 121.608 448.367 120.698 449.024C119.787 449.68 118.703 450.203 117.507 450.562C116.312 450.92 115.028 451.107 113.73 451.113V451.113Z" fill="#99C99E"/>
<path d="M139.427 417.107L139.606 417.193C134.081 422.704 128.618 428.246 123.215 433.818C120.672 436.479 120.328 440.479 120.334 444.162C120.334 446.746 117.37 448.85 113.729 448.85C112.144 448.845 110.613 448.436 109.417 447.696C108.221 446.957 107.439 445.937 107.214 444.823C106.989 443.709 107.336 442.574 108.192 441.626C109.047 440.678 110.354 439.98 111.874 439.66C116.167 438.754 119.907 436.851 122.495 434.257C126.11 430.519 134.544 422.017 139.427 417.107V417.107ZM137.884 410.813C137.884 410.813 122.533 426.22 117.242 431.7C115.486 433.429 112.977 434.7 110.102 435.316C107.785 435.793 105.701 436.719 104.085 437.99C102.468 439.261 101.382 440.827 100.948 442.512C100.515 444.196 100.751 445.933 101.631 447.528C102.511 449.123 103.999 450.512 105.928 451.54C107.858 452.568 110.153 453.194 112.556 453.348C114.959 453.501 117.374 453.177 119.532 452.411C121.69 451.645 123.504 450.468 124.772 449.01C126.04 447.553 126.71 445.874 126.709 444.162C126.709 442.583 126.658 438.275 128.488 436.361C135.088 429.571 141.763 422.818 148.511 416.102L137.884 410.813V410.813Z" fill="#5E9C76"/>
<path d="M105.62 353.97C100.775 349.544 94.4387 346.685 87.7832 345.915C85.9673 345.691 84.208 345.278 82.5621 344.689C77.0604 342.739 73.1143 339.024 72.2728 334.987C71.8643 333.12 72.03 331.213 72.7586 329.395C73.4872 327.578 74.7614 325.894 76.4937 324.459C78.226 323.025 80.3753 321.873 82.794 321.084C85.2127 320.295 87.8433 319.887 90.5053 319.887C91.9652 319.887 93.4442 320.005 94.9104 320.245C100.922 321.227 106.067 324.621 108.011 328.888C108.897 330.833 109.159 332.793 108.776 334.711C107.743 339.897 110.083 345.408 115.368 350.228L149.092 381.007L140.466 385.776L105.62 353.97V353.97Z" fill="#BAE0BD"/>
<path d="M90.5053 322.15C91.7229 322.15 92.966 322.254 94.1964 322.453C99.1434 323.259 103.37 326.06 104.977 329.585C105.71 331.205 105.926 332.82 105.614 334.39C104.46 340.191 107.029 346.309 112.85 351.617L144.623 380.613L141.027 382.599L108.139 352.585C102.796 347.712 95.7519 344.549 88.3059 343.684C86.802 343.502 85.3451 343.16 83.9837 342.671C79.3937 341.051 76.1169 337.983 75.4284 334.666C75.0847 333.12 75.2173 331.539 75.817 330.033C76.4168 328.527 77.4694 327.131 78.9025 325.941C80.3355 324.752 82.1148 323.797 84.1179 323.142C86.121 322.488 88.3002 322.149 90.5053 322.15V322.15ZM90.5053 317.625C87.3852 317.625 84.3022 318.105 81.4674 319.03C78.6327 319.955 76.1132 321.304 74.0818 322.985C72.0504 324.666 70.5549 326.639 69.698 328.768C68.8411 330.898 68.643 333.133 69.1172 335.322C70.1372 340.227 74.8865 344.508 81.1404 346.716C83.2442 347.458 85.2905 347.915 87.2732 348.146C93.6418 348.888 99.1434 351.744 103.102 355.359L139.905 388.948L153.56 381.405L117.88 348.838C113.57 344.906 110.95 339.951 111.925 335.024C112.369 332.729 112.065 330.394 111.039 328.195C108.77 323.213 102.803 319.213 95.618 318.041C93.9411 317.767 92.2261 317.627 90.5053 317.625Z" fill="#5E9C76"/>
<path d="M72.1453 428.487C68.2566 428.487 64.6101 427.257 62.1621 425.098C60.9349 424.026 60.069 422.769 59.6304 421.424C59.1918 420.078 59.1921 418.679 59.6312 417.333C60.1346 415.736 61.2396 414.265 62.8283 413.079C64.417 411.892 66.4297 411.034 68.6518 410.596C69.8248 410.383 70.9978 410.274 72.1517 410.274C74.5615 410.274 76.9011 410.749 78.9283 411.654C82.1511 413.116 85.8902 413.902 89.7148 413.921C91.6656 413.921 93.5845 413.704 95.4268 413.279L125.064 406.451L126.805 410.252L96.6062 417.211C91.2958 418.437 86.5018 421.017 82.3581 424.886C81.1668 426.008 79.6237 426.917 77.851 427.543C76.0783 428.168 74.1248 428.491 72.1453 428.487V428.487Z" fill="#BAE0BD"/>
<path d="M72.1453 412.532C73.9494 412.532 75.7089 412.89 77.2262 413.569C80.955 415.256 85.2799 416.161 89.7021 416.179C90.4798 416.179 91.2512 416.152 92.0162 416.094C87.5154 417.659 83.4227 420.148 79.8144 423.519C78.9313 424.348 77.7936 425.022 76.4879 425.492C75.1823 425.961 73.7429 426.213 72.2795 426.228C70.816 426.244 69.3669 426.022 68.0423 425.58C66.7177 425.138 65.5526 424.487 64.6356 423.677C63.713 422.865 63.0625 421.915 62.7334 420.898C62.4043 419.882 62.4051 418.825 62.7358 417.808C63.2105 416.295 64.4055 414.944 66.1194 413.983C67.8332 413.022 69.9614 412.51 72.1453 412.532V412.532ZM127.111 403.6L94.4387 411.125C92.9087 411.477 91.3103 411.655 89.7021 411.654C86.5337 411.654 83.3844 410.971 80.6177 409.736C78.0801 408.603 75.1427 408.004 72.1453 408.007C68.5063 407.992 64.9698 408.862 62.1246 410.473C59.2793 412.083 57.297 414.337 56.5074 416.858C55.9777 418.524 55.9827 420.253 56.5219 421.917C57.0611 423.581 58.1208 425.138 59.6226 426.472C61.1243 427.806 63.0295 428.883 65.1972 429.624C67.365 430.364 69.7396 430.749 72.1453 430.75C77.3537 430.75 81.9756 428.985 84.8953 426.257C88.2103 423.157 92.3732 420.564 97.5879 419.361L130.814 411.704L127.111 403.6Z" fill="#5E9C76"/>
<path d="M199.001 378.17L208.851 376.382C217.75 374.776 228.958 372.749 234.759 371.64C238.673 370.898 241.733 369.97 245.335 364.767C247.133 362.165 250.371 360.608 253.992 360.608C255.296 360.608 256.585 360.803 257.776 361.178C258.967 361.554 260.034 362.103 260.907 362.79C261.781 363.476 262.442 364.286 262.847 365.165C263.253 366.044 263.394 366.974 263.262 367.894C263.13 368.815 262.727 369.705 262.08 370.509C261.433 371.312 260.555 372.009 259.505 372.557C258.454 373.104 257.253 373.489 255.979 373.687C254.706 373.884 253.388 373.89 252.112 373.703C247.56 373.043 244.06 372.749 240.77 372.749C237.953 372.749 235.371 372.97 232.897 373.418L199.499 379.536L199.001 378.17V378.17Z" fill="#BAE0BD"/>
<path d="M253.999 362.875C254.86 362.871 255.712 362.996 256.5 363.242C257.289 363.487 257.995 363.848 258.574 364.3C259.153 364.753 259.592 365.286 259.861 365.867C260.13 366.447 260.224 367.061 260.137 367.669C260.05 368.277 259.783 368.865 259.354 369.395C258.925 369.925 258.344 370.385 257.649 370.745C256.953 371.105 256.158 371.357 255.316 371.485C254.474 371.613 253.604 371.613 252.762 371.486C249.332 370.988 246.457 370.69 243.799 370.558C245.303 369.414 246.737 367.88 248.197 365.762C248.669 365.088 250.473 362.875 253.999 362.875V362.875ZM253.999 358.35C248.822 358.35 244.627 360.667 242.479 363.771C239.336 368.305 237.111 368.857 233.936 369.459C223.367 371.472 194.813 376.55 195.125 376.563L197.21 382.296L233.701 375.617C236.018 375.204 238.4 375.002 240.79 375.016C244.347 375.016 247.93 375.405 251.48 375.921C253.191 376.166 254.955 376.155 256.659 375.888C258.363 375.62 259.97 375.103 261.375 374.368C262.78 373.633 263.953 372.698 264.818 371.622C265.683 370.546 266.222 369.354 266.398 368.121C266.575 366.889 266.386 365.644 265.844 364.467C265.301 363.289 264.418 362.205 263.25 361.285C262.082 360.364 260.655 359.628 259.062 359.122C257.469 358.617 255.744 358.354 253.999 358.35V358.35Z" fill="#5E9C76"/>
<path d="M161.319 469.208C159.553 469.208 157.749 469.041 155.977 468.701C152.871 468.091 150.04 466.924 147.754 465.312C145.469 463.7 143.806 461.698 142.927 459.497C140.607 453.434 143.845 447.429 151.176 444.194C158.221 441.085 162.269 436.298 162.269 431.053V430.261C162.269 428.261 161.204 426.669 160.497 425.614C160.299 425.311 160.095 425.053 160.012 424.822C160.038 424.239 162.326 423.058 165.775 423.058C169.224 423.058 171.506 424.239 171.506 425.021L170.894 426.089C170.174 427.343 169.275 428.908 169.275 430.519V433.66C169.275 438.569 171.691 443.339 176.064 447.081C178.92 449.515 180.431 452.475 180.431 455.642C180.431 459.271 178.442 462.679 174.834 465.24C171.226 467.801 166.425 469.208 161.319 469.208V469.208Z" fill="#D8F0DA"/>
<path d="M165.775 425.32C166.452 425.317 167.126 425.39 167.77 425.537C167.012 426.868 166.094 428.614 166.094 430.515V433.655C166.094 439.09 168.765 444.37 173.623 448.52C175.994 450.552 177.25 453.013 177.25 455.638C177.25 461.873 170.104 466.95 161.312 466.95C159.827 466.95 158.31 466.805 156.805 466.52C154.237 466.014 151.895 465.048 150.003 463.714C148.112 462.381 146.736 460.725 146.006 458.905C144.062 453.832 146.752 448.814 152.859 446.117C160.624 442.692 165.31 437.18 165.45 431.325H165.456V430.257C165.456 428.289 164.653 426.669 163.933 425.501C164.417 425.402 165.042 425.32 165.775 425.32V425.32ZM165.775 420.795C160.847 420.795 156.85 422.687 156.85 425.017C156.85 426.067 159.081 427.8 159.081 430.257V431.049C159.081 435.764 155.141 439.782 149.5 442.271C141.588 445.755 136.998 452.633 139.854 460.09C140.88 462.673 142.827 465.024 145.508 466.916C148.188 468.808 151.51 470.177 155.154 470.891C157.245 471.29 159.311 471.475 161.312 471.475C167.23 471.475 172.905 469.807 177.09 466.836C181.274 463.866 183.625 459.838 183.625 455.638C183.625 451.823 181.706 448.348 178.525 445.633C174.6 442.266 172.457 438.03 172.469 433.66V430.519C172.469 428.51 174.7 426.071 174.7 425.022C174.7 422.687 170.703 420.795 165.775 420.795V420.795Z" fill="#5E9C76"/>
<path d="M256.255 419.437C253.516 419.433 250.854 418.79 248.679 417.608C246.503 416.426 244.935 414.77 244.213 412.894C243.77 411.726 242.952 410.646 241.823 409.74C240.693 408.834 239.284 408.127 237.704 407.672C237.691 407.668 224.387 403.944 219.975 402.659C218.35 402.188 216.584 402.125 215.226 402.125L213.237 402.143C213.068 402.145 212.9 402.138 212.733 402.12C212.453 402.021 211.777 400.536 212.988 398.568C214.021 396.894 215.704 396.102 216.526 396.093C216.552 396.129 216.647 396.219 216.749 396.319C217.514 397.039 218.796 398.242 221.135 398.867C225.668 400.075 239.119 403.953 239.119 403.953C240.394 404.315 241.72 404.496 243.085 404.496C245.322 404.496 247.541 404.012 249.517 403.088C250.926 402.436 252.507 401.994 254.164 401.79C255.822 401.587 257.52 401.625 259.156 401.903C261.463 402.3 263.565 403.15 265.223 404.356C266.88 405.562 268.025 407.075 268.527 408.722C268.916 410.025 268.886 411.373 268.439 412.667C267.992 413.96 267.139 415.166 265.945 416.193C264.767 417.207 263.288 418.024 261.612 418.585C259.937 419.146 258.108 419.437 256.255 419.437V419.437Z" fill="#D8F0DA"/>
<path d="M216.08 399.215C216.431 399.451 216.82 399.686 217.259 399.917C216.742 399.884 216.223 399.866 215.704 399.862C215.802 399.639 215.928 399.423 216.08 399.215V399.215ZM256.255 403.921C258.658 403.998 260.927 404.73 262.589 405.965C264.251 407.199 265.178 408.841 265.178 410.548C265.178 412.256 264.251 413.897 262.589 415.132C260.927 416.366 258.658 417.098 256.255 417.175C254.214 417.172 252.232 416.693 250.612 415.811C248.993 414.93 247.826 413.695 247.292 412.297C246.428 410.042 244.494 408.068 241.816 406.709C245.149 406.901 248.477 406.292 251.264 404.98C252.755 404.288 254.483 403.921 256.255 403.921V403.921ZM216.539 393.821C214.161 393.821 211.496 395.333 210.062 397.659C208.328 400.482 209.068 403.433 211.72 404.256C212.102 404.374 212.695 404.401 213.396 404.401C213.951 404.401 214.576 404.383 215.226 404.383C216.418 404.383 217.693 404.437 218.758 404.749C223.182 406.034 236.512 409.772 236.512 409.772C238.801 410.419 240.49 411.799 241.134 413.487C242.036 415.844 244.005 417.925 246.738 419.409C249.47 420.893 252.815 421.698 256.255 421.7C258.59 421.699 260.895 421.328 263.004 420.616C265.112 419.904 266.971 418.868 268.445 417.582C269.919 416.297 270.971 414.795 271.526 413.185C272.08 411.575 272.123 409.897 271.651 408.274C270.906 405.766 268.97 403.516 266.168 401.9C263.365 400.284 259.866 399.4 256.255 399.396C253.119 399.396 250.218 400.061 247.777 401.193C246.386 401.852 244.756 402.21 243.085 402.224C242.154 402.224 241.223 402.107 240.318 401.849C240.318 401.849 226.803 397.953 222.251 396.74C219.797 396.084 219.153 394.392 218.005 394.034C217.543 393.892 217.043 393.819 216.539 393.821V393.821Z" fill="#5E9C76"/>
<path d="M161.313 354.277C154.708 354.277 148.505 351.734 148.505 350.21C148.505 349.259 149.519 348.277 151.291 347.508C155.193 345.816 157.437 343.178 157.437 340.273V339.024C157.437 334.34 156.576 329.576 150.373 326.489C143.463 323.06 140.607 317.037 143.074 311.145C144.833 306.937 149.876 303.466 155.907 302.303C157.672 301.966 159.491 301.792 161.319 301.787C166.389 301.792 171.248 303.224 174.833 305.769C178.417 308.314 180.432 311.764 180.438 315.362C180.438 319.783 177.39 323.937 172.29 326.48C166.967 329.137 164.264 333.295 164.264 338.843V340.268C164.264 343.173 166.508 345.811 170.41 347.504C172.169 348.273 173.189 349.255 173.189 350.205C173.183 351.816 167.866 354.277 161.313 354.277V354.277Z" fill="#D8F0DA"/>
<path d="M161.313 304.05C170.104 304.05 177.25 309.127 177.25 315.363C177.25 319.046 174.713 322.507 170.454 324.625C164.226 327.729 161.07 332.508 161.07 338.838V340.268C161.07 343.92 163.933 347.345 168.733 349.431C169.139 349.601 169.508 349.811 169.83 350.056C168.803 350.789 165.482 352.015 161.313 352.015C157.214 352.015 153.363 350.829 151.973 349.983C152.268 349.77 152.6 349.585 152.961 349.431C157.762 347.345 160.624 343.92 160.624 340.268V339.028C160.624 335.716 160.624 328.824 152.19 324.639C146.433 321.779 144.056 316.743 146.127 311.801C146.898 310.052 148.271 308.468 150.124 307.191C151.977 305.915 154.249 304.988 156.735 304.493C158.265 304.199 159.802 304.05 161.313 304.05V304.05ZM161.313 299.525C159.202 299.529 157.101 299.731 155.065 300.127C151.532 300.823 148.301 302.138 145.671 303.952C143.041 305.766 141.096 308.02 140.014 310.507C136.96 317.788 141.078 324.643 148.531 328.345C153.542 330.833 154.243 334.689 154.243 339.028V340.273C154.243 342.517 152.324 344.404 149.621 345.576C146.975 346.725 145.318 348.368 145.318 350.205C145.318 353.703 153.918 356.54 161.306 356.54C168.701 356.54 176.364 353.703 176.364 350.205C176.364 348.368 174.7 346.725 172.061 345.576C169.364 344.404 167.439 342.517 167.439 340.273V338.843C167.439 334.544 169.154 330.802 174.107 328.331C177.991 326.399 180.907 323.638 182.43 320.45C183.954 317.261 184.006 313.811 182.58 310.601C181.154 307.39 178.323 304.585 174.499 302.593C170.675 300.602 166.056 299.527 161.313 299.525V299.525Z" fill="#5E9C76"/>
<path d="M161.313 433.012C126.161 433.012 97.5625 412.713 97.5625 387.762C97.5625 362.812 126.161 342.512 161.313 342.512C196.464 342.512 225.063 362.812 225.063 387.762C225.063 412.713 196.464 433.012 161.313 433.012Z" fill="#BAE0BD"/>
<path d="M161.312 344.775C194.705 344.775 221.875 364.061 221.875 387.762C221.875 411.464 194.705 430.75 161.312 430.75C127.92 430.75 100.75 411.464 100.75 387.762C100.75 364.061 127.92 344.775 161.312 344.775ZM161.312 340.25C124.344 340.25 94.375 361.522 94.375 387.762C94.375 414.003 124.344 435.275 161.312 435.275C198.281 435.275 228.25 414.003 228.25 387.762C228.25 361.522 198.281 340.25 161.312 340.25Z" fill="#5E9C76"/>
<path d="M148.562 383.237C155.604 383.237 161.312 379.186 161.312 374.187C161.312 369.189 155.604 365.137 148.562 365.137C141.521 365.137 135.812 369.189 135.812 374.187C135.812 379.186 141.521 383.237 148.562 383.237Z" fill="#FFEEA3"/>
<path d="M148.562 367.4C153.835 367.4 158.125 370.445 158.125 374.188C158.125 377.93 153.835 380.975 148.562 380.975C143.29 380.975 139 377.93 139 374.188C139 370.445 143.29 367.4 148.562 367.4ZM148.562 362.875C139.797 362.875 132.625 367.966 132.625 374.188C132.625 380.409 139.79 385.5 148.562 385.5C157.328 385.5 164.5 380.409 164.5 374.188C164.5 367.966 157.328 362.875 148.562 362.875Z" fill="#BA9B48"/>
<path d="M142.188 410.387C138.197 410.387 135.812 408.695 135.812 405.862C135.812 403.03 138.197 401.337 142.188 401.337C146.178 401.337 148.562 403.03 148.562 405.862C148.562 408.695 146.178 410.387 142.188 410.387Z" fill="#FFEEA3"/>
<path d="M142.188 403.6C144.393 403.6 145.375 404.297 145.375 405.862C145.375 407.428 144.393 408.125 142.188 408.125C139.982 408.125 139 407.428 139 405.862C139 404.297 139.982 403.6 142.188 403.6ZM142.188 399.075C136.444 399.075 132.625 401.79 132.625 405.862C132.625 409.935 136.45 412.65 142.188 412.65C147.925 412.65 151.75 409.935 151.75 405.862C151.75 401.79 147.925 399.075 142.188 399.075Z" fill="#BA9B48"/>
<path d="M183.625 410.387C178.621 410.387 174.062 407.152 174.062 403.6C174.062 400.048 178.621 396.812 183.625 396.812C188.629 396.812 193.188 400.048 193.188 403.6C193.188 407.152 188.629 410.387 183.625 410.387Z" fill="#FFEEA3"/>
<path d="M183.625 399.075C186.902 399.075 190 401.274 190 403.6C190 405.926 186.902 408.125 183.625 408.125C180.348 408.125 177.25 405.926 177.25 403.6C177.25 401.274 180.348 399.075 183.625 399.075ZM183.625 394.55C176.817 394.55 170.875 398.767 170.875 403.6C170.875 408.433 176.829 412.65 183.625 412.65C190.421 412.65 196.375 408.433 196.375 403.6C196.375 398.767 190.421 394.55 183.625 394.55Z" fill="#BA9B48"/>
<path d="M38.5 116.5V146.469C38.5 151.448 36.9375 155.385 33.8125 158.281C30.7083 161.177 26.4583 162.625 21.0625 162.625C15.75 162.625 11.5312 161.219 8.40625 158.406C5.28125 155.594 3.6875 151.729 3.625 146.812V116.5H13V146.531C13 149.51 13.7083 151.688 15.125 153.062C16.5625 154.417 18.5417 155.094 21.0625 155.094C26.3333 155.094 29.0104 152.323 29.0938 146.781V116.5H38.5ZM55.5625 145.969V162H46.1875V116.5H63.9375C67.3542 116.5 70.3542 117.125 72.9375 118.375C75.5417 119.625 77.5417 121.406 78.9375 123.719C80.3333 126.01 81.0312 128.625 81.0312 131.562C81.0312 136.021 79.5 139.542 76.4375 142.125C73.3958 144.688 69.1771 145.969 63.7812 145.969H55.5625ZM55.5625 138.375H63.9375C66.4167 138.375 68.3021 137.792 69.5938 136.625C70.9062 135.458 71.5625 133.792 71.5625 131.625C71.5625 129.396 70.9062 127.594 69.5938 126.219C68.2812 124.844 66.4688 124.135 64.1562 124.094H55.5625V138.375ZM87.5 162V116.5H101.5C105.5 116.5 109.073 117.406 112.219 119.219C115.385 121.01 117.854 123.573 119.625 126.906C121.396 130.219 122.281 133.99 122.281 138.219V140.312C122.281 144.542 121.406 148.302 119.656 151.594C117.927 154.885 115.479 157.438 112.312 159.25C109.146 161.062 105.573 161.979 101.594 162H87.5ZM96.875 124.094V154.469H101.406C105.073 154.469 107.875 153.271 109.812 150.875C111.75 148.479 112.74 145.052 112.781 140.594V138.188C112.781 133.562 111.823 130.062 109.906 127.688C107.99 125.292 105.188 124.094 101.5 124.094H96.875ZM154.125 152.625H137.688L134.562 162H124.594L141.531 116.5H150.219L167.25 162H157.281L154.125 152.625ZM140.219 145.031H151.594L145.875 128L140.219 145.031ZM202 124.094H188.062V162H178.688V124.094H164.938V116.5H202V124.094ZM234.75 142.281H216.75V154.469H237.875V162H207.375V116.5H237.812V124.094H216.75V134.938H234.75V142.281ZM295.031 146.844C294.677 151.74 292.865 155.594 289.594 158.406C286.344 161.219 282.052 162.625 276.719 162.625C270.885 162.625 266.292 160.667 262.938 156.75C259.604 152.812 257.938 147.417 257.938 140.562V137.781C257.938 133.406 258.708 129.552 260.25 126.219C261.792 122.885 263.99 120.333 266.844 118.562C269.719 116.771 273.052 115.875 276.844 115.875C282.094 115.875 286.323 117.281 289.531 120.094C292.74 122.906 294.594 126.854 295.094 131.938H285.719C285.49 129 284.667 126.875 283.25 125.562C281.854 124.229 279.719 123.562 276.844 123.562C273.719 123.562 271.375 124.688 269.812 126.938C268.271 129.167 267.479 132.635 267.438 137.344V140.781C267.438 145.698 268.177 149.292 269.656 151.562C271.156 153.833 273.51 154.969 276.719 154.969C279.615 154.969 281.771 154.312 283.188 153C284.625 151.667 285.448 149.615 285.656 146.844H295.031ZM338.562 140.281C338.562 144.76 337.771 148.688 336.188 152.062C334.604 155.438 332.333 158.042 329.375 159.875C326.438 161.708 323.062 162.625 319.25 162.625C315.479 162.625 312.115 161.719 309.156 159.906C306.198 158.094 303.906 155.51 302.281 152.156C300.656 148.781 299.833 144.906 299.812 140.531V138.281C299.812 133.802 300.615 129.865 302.219 126.469C303.844 123.052 306.125 120.438 309.062 118.625C312.021 116.792 315.396 115.875 319.188 115.875C322.979 115.875 326.344 116.792 329.281 118.625C332.24 120.438 334.521 123.052 336.125 126.469C337.75 129.865 338.562 133.792 338.562 138.25V140.281ZM329.062 138.219C329.062 133.448 328.208 129.823 326.5 127.344C324.792 124.865 322.354 123.625 319.188 123.625C316.042 123.625 313.615 124.854 311.906 127.312C310.198 129.75 309.333 133.333 309.312 138.062V140.281C309.312 144.927 310.167 148.531 311.875 151.094C313.583 153.656 316.042 154.938 319.25 154.938C322.396 154.938 324.812 153.708 326.5 151.25C328.188 148.771 329.042 145.167 329.062 140.438V138.219ZM361.5 150.719L371.812 116.5H382.25L366.406 162H356.625L340.844 116.5H351.25L361.5 150.719ZM396.531 162H387.156V116.5H396.531V162ZM405.25 162V116.5H419.25C423.25 116.5 426.823 117.406 429.969 119.219C433.135 121.01 435.604 123.573 437.375 126.906C439.146 130.219 440.031 133.99 440.031 138.219V140.312C440.031 144.542 439.156 148.302 437.406 151.594C435.677 154.885 433.229 157.438 430.062 159.25C426.896 161.062 423.323 161.979 419.344 162H405.25ZM414.625 124.094V154.469H419.156C422.823 154.469 425.625 153.271 427.562 150.875C429.5 148.479 430.49 145.052 430.531 140.594V138.188C430.531 133.562 429.573 130.062 427.656 127.688C425.74 125.292 422.938 124.094 419.25 124.094H414.625ZM463.844 146.156H446.25V138.875H463.844V146.156ZM492.656 162H483.625V127.188L472.844 130.531V123.188L491.688 116.438H492.656V162ZM528.594 143.812C526.24 146.125 523.49 147.281 520.344 147.281C516.323 147.281 513.104 145.906 510.688 143.156C508.271 140.385 507.062 136.656 507.062 131.969C507.062 128.99 507.708 126.26 509 123.781C510.312 121.281 512.135 119.344 514.469 117.969C516.802 116.573 519.427 115.875 522.344 115.875C525.344 115.875 528.01 116.625 530.344 118.125C532.677 119.625 534.49 121.781 535.781 124.594C537.073 127.406 537.729 130.625 537.75 134.25V137.594C537.75 145.177 535.865 151.135 532.094 155.469C528.323 159.802 522.979 162.115 516.062 162.406L513.844 162.438V154.906L515.844 154.875C523.698 154.521 527.948 150.833 528.594 143.812ZM522.562 140.375C524.021 140.375 525.271 140 526.312 139.25C527.375 138.5 528.177 137.594 528.719 136.531V132.812C528.719 129.75 528.135 127.375 526.969 125.688C525.802 124 524.24 123.156 522.281 123.156C520.469 123.156 518.979 123.99 517.812 125.656C516.646 127.302 516.062 129.375 516.062 131.875C516.062 134.354 516.625 136.396 517.75 138C518.896 139.583 520.5 140.375 522.562 140.375Z" fill="#3F3D56"/>
<path d="M396.536 358.662C394.659 358.672 392.828 358.264 391.318 357.5C389.809 356.735 388.701 355.655 388.163 354.421C387.677 353.331 387.658 352.169 388.109 351.072C389.086 348.723 388.692 345.995 387.004 343.386L380.41 333.21L385.141 331.768C386.711 334.229 390.879 340.753 392.61 343.274C394.267 345.698 397.665 346.586 399.694 347.117C400.221 347.254 400.671 347.364 400.983 347.491C402.291 348.024 403.375 348.781 404.129 349.687C404.883 350.593 405.283 351.618 405.288 352.661C405.288 354.263 404.377 355.774 402.722 356.907C401.912 357.466 400.948 357.908 399.886 358.21C398.824 358.511 397.685 358.665 396.536 358.662Z" fill="#99C99E"/>
<path d="M384.367 333.14C386.218 336.041 389.676 341.43 391.239 343.714C393.157 346.515 396.908 347.497 399.15 348.082C399.531 348.182 400.054 348.319 400.212 348.381C401.294 348.822 402.192 349.448 402.817 350.198C403.441 350.948 403.771 351.796 403.775 352.66C403.773 353.976 403.01 355.238 401.653 356.169C400.296 357.1 398.456 357.624 396.536 357.625C394.985 357.637 393.471 357.303 392.222 356.672C390.973 356.041 390.058 355.148 389.615 354.129C389.21 353.227 389.192 352.265 389.564 351.356C390.638 348.775 390.22 345.793 388.387 342.963L382.41 333.736L384.367 333.14ZM385.922 330.395L378.417 332.683L385.625 343.808C387.044 345.999 387.619 348.48 386.657 350.788C386.128 352.073 386.148 353.436 386.714 354.714C387.7 357.025 390.507 358.899 393.917 359.478C394.806 359.629 395.683 359.7 396.536 359.7C398.788 359.7 400.978 359.193 402.767 358.256C404.557 357.319 405.848 356.004 406.441 354.513C407.034 353.023 406.896 351.441 406.049 350.01C405.201 348.579 403.691 347.379 401.751 346.594C400.224 345.974 395.819 345.519 393.977 342.83C391.826 339.689 385.922 330.395 385.922 330.395V330.395Z" fill="#5E9C76"/>
<path d="M381.088 315.239L384.63 312.201C387.147 310.043 388.293 307.557 387.851 305.2C387.689 304.289 387.84 303.364 388.293 302.501C389.255 300.604 391.557 299.137 394.295 298.674C395.573 298.449 396.91 298.424 398.204 298.6C399.499 298.777 400.719 299.151 401.775 299.695C402.83 300.239 403.694 300.939 404.302 301.743C404.91 302.547 405.247 303.434 405.288 304.339C405.348 306.003 403.999 307.767 401.685 309.06C400.411 309.769 399.195 310.203 397.958 310.39C394.346 310.927 391.385 312.114 389.394 313.818L385.144 317.461L381.088 315.239Z" fill="#99C99E"/>
<path d="M396.536 299.525C398.421 299.532 400.229 300.04 401.579 300.942C402.929 301.845 403.716 303.071 403.775 304.364C403.823 305.708 402.683 307.163 400.729 308.254C399.643 308.86 398.632 309.226 397.634 309.375C393.678 309.966 390.42 311.28 388.211 313.17L384.905 316.005L383.214 315.077L385.813 312.849C388.589 310.469 389.845 307.705 389.355 305.067C389.222 304.316 389.349 303.553 389.724 302.841C390.507 301.295 392.446 300.054 394.661 299.683C395.284 299.579 395.916 299.525 396.536 299.525V299.525ZM396.536 297.45C395.689 297.45 394.818 297.521 393.935 297.67C390.662 298.222 387.969 299.979 386.862 302.162C386.332 303.178 386.157 304.265 386.351 305.335C386.768 307.568 385.498 309.798 383.447 311.556L378.958 315.403L385.374 318.922L390.568 314.467C392.489 312.822 395.269 311.85 398.273 311.402C399.625 311.201 401.071 310.736 402.632 309.865C405.088 308.495 406.873 306.485 406.794 304.314C406.728 302.478 405.618 300.733 403.701 299.45C401.785 298.168 399.214 297.45 396.536 297.45V297.45Z" fill="#5E9C76"/>
<path d="M333.622 324.531C332.894 324.417 332.149 324.36 331.402 324.359C329.911 324.359 328.486 324.604 327.288 325.068C326.627 325.325 325.881 325.459 325.122 325.458C323.948 325.429 322.836 325.089 322.021 324.509C321.205 323.929 320.749 323.155 320.749 322.349C320.748 321.543 321.203 320.769 322.019 320.188C322.834 319.608 323.945 319.267 325.119 319.238C326.45 319.238 327.708 319.64 328.567 320.344C329.835 321.379 331.756 322.118 334.13 322.483L350.547 324.996L349.891 327.021L333.622 324.531V324.531Z" fill="#99C99E"/>
<path d="M325.119 320.275C326.002 320.275 326.837 320.543 327.409 321.012C328.876 322.213 331.066 323.068 333.74 323.485C332.972 323.376 332.189 323.321 331.405 323.321C329.653 323.321 327.971 323.612 326.544 324.161C326.109 324.33 325.618 324.418 325.119 324.417C324.318 324.417 323.55 324.198 322.984 323.81C322.418 323.422 322.1 322.895 322.1 322.346C322.1 321.797 322.418 321.27 322.984 320.881C323.55 320.493 324.318 320.275 325.119 320.275V320.275ZM325.119 318.2C323.549 318.234 322.06 318.686 320.967 319.46C319.874 320.233 319.263 321.268 319.263 322.346C319.263 323.423 319.874 324.458 320.967 325.232C322.06 326.006 323.549 326.458 325.119 326.492C326.178 326.492 327.164 326.301 328.023 325.971C329.058 325.583 330.222 325.385 331.402 325.396C332.034 325.396 332.669 325.448 333.292 325.541L351.034 328.257L352.35 324.209L334.46 321.47C332.666 321.196 330.909 320.646 329.729 319.679C329.166 319.216 328.461 318.844 327.664 318.588C326.867 318.332 325.998 318.2 325.119 318.2V318.2Z" fill="#5E9C76"/>
<path d="M346.409 356.588C345.292 356.587 344.212 356.309 343.368 355.807C342.525 355.304 341.973 354.61 341.815 353.851C341.657 353.092 341.903 352.32 342.508 351.675C343.113 351.031 344.036 350.557 345.108 350.342C346.808 349.99 348.29 349.262 349.325 348.273C351.297 346.296 356.231 341.498 358.237 339.552L360.802 340.784C358.914 342.608 354.471 346.91 352.162 349.24C351.188 350.228 351.058 351.871 351.058 353.346C351.065 353.769 350.949 354.188 350.719 354.58C350.488 354.972 350.147 355.328 349.715 355.63C349.283 355.931 348.769 356.17 348.201 356.335C347.634 356.499 347.025 356.585 346.409 356.588V356.588Z" fill="#99C99E"/>
<path d="M358.603 340.994L358.687 341.033C356.066 343.561 353.473 346.102 350.91 348.657C349.703 349.877 349.54 351.711 349.543 353.4C349.543 354.585 348.136 355.55 346.409 355.55C345.656 355.548 344.93 355.36 344.362 355.021C343.795 354.682 343.424 354.214 343.317 353.703C343.21 353.192 343.375 352.672 343.781 352.237C344.187 351.803 344.807 351.483 345.529 351.336C347.566 350.92 349.34 350.048 350.568 348.858C352.283 347.144 356.285 343.245 358.603 340.994V340.994ZM357.871 338.108C357.871 338.108 350.586 345.173 348.076 347.686C347.242 348.479 346.052 349.061 344.688 349.344C343.588 349.563 342.599 349.987 341.832 350.57C341.065 351.153 340.55 351.871 340.344 352.644C340.138 353.416 340.251 354.213 340.668 354.944C341.085 355.675 341.792 356.312 342.707 356.783C343.623 357.255 344.712 357.542 345.852 357.612C346.992 357.683 348.138 357.534 349.162 357.183C350.186 356.832 351.047 356.292 351.649 355.624C352.25 354.955 352.568 354.186 352.568 353.4C352.568 352.676 352.544 350.701 353.412 349.823C356.544 346.71 359.711 343.613 362.913 340.533L357.871 338.108V338.108Z" fill="#5E9C76"/>
<path d="M342.561 312.041C340.262 310.012 337.255 308.701 334.097 308.348C333.236 308.245 332.401 308.056 331.62 307.786C329.009 306.891 327.137 305.188 326.737 303.337C326.543 302.481 326.622 301.606 326.968 300.772C327.314 299.939 327.918 299.167 328.74 298.509C329.562 297.851 330.582 297.323 331.73 296.961C332.877 296.599 334.126 296.412 335.389 296.412C336.082 296.412 336.783 296.466 337.479 296.576C340.332 297.027 342.773 298.583 343.695 300.54C344.116 301.432 344.24 302.33 344.058 303.21C343.568 305.588 344.679 308.115 347.186 310.325L363.189 324.439L359.096 326.627L342.561 312.041V312.041Z" fill="#BAE0BD"/>
<path d="M335.389 297.45C335.967 297.45 336.556 297.498 337.14 297.589C339.488 297.958 341.493 299.243 342.256 300.859C342.603 301.602 342.706 302.343 342.558 303.063C342.011 305.723 343.23 308.528 345.991 310.962L361.068 324.259L359.362 325.17L343.756 311.406C341.221 309.172 337.878 307.721 334.345 307.325C333.632 307.241 332.94 307.084 332.294 306.86C330.116 306.117 328.561 304.71 328.235 303.189C328.072 302.48 328.134 301.756 328.419 301.065C328.704 300.374 329.203 299.734 329.883 299.189C330.563 298.643 331.407 298.205 332.358 297.905C333.308 297.605 334.342 297.45 335.389 297.45V297.45ZM335.389 295.375C333.908 295.375 332.445 295.595 331.1 296.019C329.755 296.443 328.56 297.062 327.596 297.833C326.632 298.604 325.922 299.508 325.516 300.485C325.109 301.461 325.015 302.487 325.24 303.49C325.724 305.74 327.978 307.703 330.945 308.715C331.943 309.055 332.914 309.265 333.855 309.371C336.877 309.711 339.488 311.02 341.366 312.678L358.83 328.081L365.309 324.622L348.378 309.688C346.333 307.885 345.09 305.613 345.553 303.353C345.763 302.301 345.619 301.23 345.132 300.222C344.055 297.938 341.224 296.103 337.815 295.566C337.019 295.44 336.205 295.376 335.389 295.375Z" fill="#5E9C76"/>
<path d="M326.677 346.213C324.831 346.213 323.101 345.648 321.94 344.658C321.357 344.167 320.946 343.59 320.738 342.973C320.53 342.356 320.53 341.715 320.739 341.098C320.978 340.365 321.502 339.691 322.256 339.147C323.01 338.602 323.965 338.209 325.019 338.008C325.576 337.91 326.132 337.861 326.68 337.861C327.823 337.861 328.933 338.079 329.895 338.494C331.425 339.164 333.199 339.524 335.014 339.533C335.939 339.533 336.85 339.434 337.724 339.238L351.787 336.107L352.613 337.85L338.284 341.042C335.764 341.604 333.489 342.787 331.523 344.561C330.958 345.075 330.225 345.493 329.384 345.779C328.543 346.066 327.616 346.214 326.677 346.213V346.213Z" fill="#BAE0BD"/>
<path d="M326.677 338.896C327.533 338.896 328.368 339.06 329.088 339.371C330.857 340.145 332.909 340.56 335.008 340.569C335.377 340.569 335.743 340.556 336.106 340.529C333.97 341.247 332.028 342.388 330.316 343.934C329.897 344.314 329.357 344.623 328.737 344.839C328.118 345.054 327.435 345.17 326.74 345.177C326.046 345.184 325.358 345.082 324.73 344.879C324.101 344.676 323.549 344.378 323.113 344.007C322.676 343.634 322.367 343.199 322.211 342.732C322.055 342.266 322.055 341.782 322.212 341.316C322.437 340.622 323.004 340.002 323.817 339.561C324.631 339.121 325.641 338.886 326.677 338.896V338.896ZM352.758 334.8L337.255 338.251C336.529 338.412 335.771 338.494 335.008 338.494C333.504 338.494 332.01 338.18 330.697 337.614C329.493 337.094 328.099 336.82 326.677 336.821C324.95 336.814 323.272 337.213 321.922 337.952C320.572 338.69 319.631 339.724 319.256 340.88C319.005 341.644 319.007 342.436 319.263 343.2C319.519 343.963 320.022 344.677 320.735 345.288C321.447 345.9 322.351 346.394 323.38 346.734C324.408 347.073 325.535 347.25 326.677 347.25C329.148 347.25 331.341 346.441 332.727 345.19C334.3 343.768 336.275 342.579 338.75 342.027L354.516 338.516L352.758 334.8Z" fill="#5E9C76"/>
<path d="M386.871 323.139L391.545 322.319C395.768 321.582 401.086 320.653 403.838 320.144C405.696 319.804 407.148 319.379 408.857 316.992C409.71 315.799 411.247 315.085 412.965 315.085C413.583 315.086 414.195 315.175 414.76 315.347C415.325 315.519 415.832 315.771 416.246 316.086C416.661 316.401 416.974 316.772 417.167 317.175C417.359 317.578 417.426 318.005 417.364 318.427C417.301 318.849 417.11 319.257 416.803 319.625C416.495 319.994 416.079 320.314 415.581 320.565C415.082 320.816 414.512 320.992 413.908 321.083C413.304 321.173 412.678 321.176 412.072 321.09C409.913 320.788 408.252 320.653 406.691 320.653C405.354 320.653 404.129 320.754 402.955 320.96L387.107 323.765L386.871 323.139V323.139Z" fill="#BAE0BD"/>
<path d="M412.968 316.125C413.376 316.123 413.781 316.181 414.155 316.293C414.529 316.406 414.864 316.571 415.139 316.779C415.414 316.986 415.622 317.231 415.75 317.497C415.877 317.763 415.922 318.045 415.881 318.324C415.839 318.602 415.713 318.872 415.509 319.115C415.306 319.358 415.03 319.569 414.7 319.734C414.37 319.899 413.993 320.015 413.593 320.073C413.194 320.132 412.781 320.132 412.381 320.074C410.754 319.846 409.389 319.709 408.128 319.648C408.842 319.123 409.522 318.42 410.215 317.449C410.439 317.14 411.295 316.125 412.968 316.125V316.125ZM412.968 314.05C410.512 314.05 408.521 315.112 407.502 316.536C406.01 318.615 404.955 318.868 403.448 319.144C398.433 320.068 384.884 322.396 385.032 322.402L386.021 325.031L403.336 321.968C404.436 321.779 405.566 321.686 406.7 321.692C408.388 321.692 410.088 321.871 411.773 322.107C412.585 322.22 413.422 322.215 414.23 322.092C415.039 321.97 415.801 321.732 416.468 321.395C417.135 321.059 417.691 320.63 418.102 320.136C418.512 319.643 418.768 319.096 418.852 318.531C418.936 317.966 418.846 317.395 418.589 316.855C418.331 316.315 417.912 315.818 417.358 315.396C416.804 314.974 416.127 314.636 415.371 314.404C414.615 314.172 413.796 314.052 412.968 314.05V314.05Z" fill="#5E9C76"/>
<path d="M368.991 364.885C368.153 364.885 367.297 364.809 366.456 364.653C364.982 364.373 363.638 363.838 362.554 363.099C361.469 362.36 360.681 361.441 360.263 360.433C359.162 357.652 360.699 354.898 364.178 353.415C367.52 351.989 369.441 349.794 369.441 347.389V347.026C369.441 346.109 368.936 345.378 368.6 344.895C368.507 344.756 368.41 344.638 368.37 344.532C368.383 344.264 369.469 343.723 371.105 343.723C372.742 343.723 373.825 344.264 373.825 344.623L373.534 345.113C373.192 345.688 372.766 346.406 372.766 347.144V348.584C372.766 350.836 373.912 353.023 375.987 354.739C377.343 355.855 378.06 357.212 378.06 358.665C378.06 360.329 377.116 361.891 375.404 363.066C373.691 364.24 371.414 364.885 368.991 364.885V364.885Z" fill="#D8F0DA"/>
<path d="M371.105 344.76C371.426 344.759 371.746 344.792 372.052 344.86C371.692 345.47 371.256 346.271 371.256 347.142V348.582C371.256 351.074 372.524 353.496 374.829 355.399C375.954 356.33 376.55 357.459 376.55 358.663C376.55 361.522 373.159 363.85 368.987 363.85C368.283 363.85 367.563 363.784 366.849 363.653C365.63 363.421 364.519 362.978 363.621 362.366C362.724 361.755 362.071 360.995 361.724 360.161C360.802 357.835 362.078 355.533 364.976 354.297C368.661 352.726 370.884 350.199 370.951 347.514H370.954V347.024C370.954 346.121 370.573 345.378 370.231 344.843C370.461 344.797 370.757 344.76 371.105 344.76V344.76ZM371.105 342.685C368.767 342.685 366.87 343.552 366.87 344.621C366.87 345.102 367.929 345.897 367.929 347.024V347.387C367.929 349.549 366.059 351.392 363.382 352.533C359.628 354.131 357.45 357.285 358.805 360.704C359.292 361.889 360.216 362.967 361.488 363.834C362.76 364.702 364.336 365.33 366.065 365.657C367.057 365.84 368.038 365.925 368.987 365.925C371.795 365.925 374.488 365.16 376.474 363.798C378.459 362.436 379.575 360.589 379.575 358.663C379.575 356.913 378.664 355.32 377.155 354.075C375.292 352.531 374.276 350.588 374.281 348.584V347.144C374.281 346.223 375.34 345.105 375.34 344.623C375.34 343.552 373.443 342.685 371.105 342.685V342.685Z" fill="#5E9C76"/>
<path d="M414.039 342.062C412.739 342.06 411.476 341.766 410.444 341.224C409.411 340.682 408.667 339.922 408.325 339.062C408.115 338.526 407.726 338.031 407.19 337.616C406.655 337.2 405.986 336.876 405.236 336.667C405.23 336.665 398.917 334.958 396.824 334.368C396.052 334.153 395.214 334.124 394.57 334.124L393.626 334.132C393.546 334.133 393.466 334.13 393.387 334.121C393.254 334.076 392.933 333.395 393.508 332.493C393.998 331.725 394.797 331.362 395.187 331.358C395.199 331.374 395.244 331.416 395.293 331.461C395.656 331.791 396.264 332.343 397.374 332.63C399.525 333.184 405.908 334.962 405.908 334.962C406.513 335.128 407.142 335.211 407.789 335.211C408.851 335.211 409.904 334.989 410.841 334.565C411.51 334.266 412.26 334.064 413.047 333.97C413.833 333.877 414.639 333.894 415.415 334.022C416.51 334.204 417.507 334.594 418.294 335.147C419.08 335.7 419.624 336.394 419.862 337.149C420.046 337.746 420.032 338.365 419.82 338.958C419.608 339.551 419.203 340.104 418.637 340.575C418.078 341.04 417.376 341.415 416.581 341.672C415.786 341.929 414.918 342.062 414.039 342.062V342.062Z" fill="#D8F0DA"/>
<path d="M394.975 332.789C395.142 332.897 395.326 333.005 395.535 333.111C395.289 333.096 395.043 333.088 394.797 333.086C394.843 332.984 394.903 332.884 394.975 332.789V332.789ZM414.039 334.947C415.179 334.983 416.255 335.318 417.044 335.884C417.833 336.45 418.273 337.203 418.273 337.986C418.273 338.769 417.833 339.522 417.044 340.088C416.255 340.654 415.179 340.99 414.039 341.025C413.07 341.024 412.13 340.804 411.361 340.4C410.593 339.996 410.039 339.429 409.786 338.788C409.376 337.754 408.458 336.849 407.187 336.226C408.769 336.314 410.348 336.034 411.67 335.433C412.378 335.115 413.198 334.947 414.039 334.947V334.947ZM395.193 330.316C394.065 330.316 392.8 331.009 392.12 332.076C391.297 333.37 391.648 334.723 392.906 335.101C393.088 335.155 393.369 335.167 393.702 335.167C393.965 335.167 394.261 335.159 394.57 335.159C395.136 335.159 395.741 335.184 396.246 335.327C398.345 335.916 404.67 337.63 404.67 337.63C405.756 337.927 406.558 338.56 406.863 339.334C407.292 340.415 408.226 341.369 409.523 342.049C410.819 342.73 412.406 343.099 414.039 343.1C415.147 343.099 416.241 342.93 417.241 342.603C418.241 342.276 419.123 341.801 419.823 341.212C420.522 340.622 421.022 339.933 421.285 339.195C421.548 338.457 421.568 337.688 421.344 336.943C420.991 335.794 420.072 334.762 418.742 334.021C417.413 333.28 415.752 332.874 414.039 332.872C412.55 332.872 411.174 333.177 410.016 333.696C409.356 333.998 408.582 334.163 407.789 334.169C407.347 334.169 406.906 334.115 406.476 333.997C406.476 333.997 400.063 332.21 397.903 331.654C396.739 331.353 396.433 330.577 395.889 330.413C395.669 330.348 395.432 330.315 395.193 330.316V330.316Z" fill="#5E9C76"/>
<path d="M368.987 312.182C365.854 312.182 362.91 311.016 362.91 310.317C362.91 309.881 363.391 309.431 364.232 309.078C366.083 308.302 367.148 307.092 367.148 305.76V305.188C367.148 303.04 366.74 300.855 363.797 299.44C360.517 297.867 359.162 295.105 360.333 292.404C361.168 290.474 363.561 288.882 366.422 288.349C367.26 288.194 368.123 288.115 368.991 288.112C371.396 288.115 373.702 288.771 375.403 289.938C377.104 291.105 378.06 292.687 378.062 294.337C378.062 296.365 376.617 298.27 374.197 299.436C371.671 300.654 370.388 302.561 370.388 305.105V305.758C370.388 307.09 371.453 308.3 373.304 309.076C374.139 309.429 374.623 309.879 374.623 310.315C374.62 311.054 372.097 312.182 368.987 312.182V312.182Z" fill="#D8F0DA"/>
<path d="M368.988 289.15C373.159 289.15 376.55 291.478 376.55 294.337C376.55 296.027 375.346 297.614 373.325 298.585C370.37 300.008 368.873 302.2 368.873 305.103V305.758C368.873 307.433 370.231 309.004 372.509 309.96C372.701 310.038 372.876 310.134 373.029 310.246C372.542 310.583 370.966 311.145 368.988 311.145C367.042 311.145 365.215 310.601 364.556 310.213C364.696 310.116 364.853 310.03 365.025 309.96C367.303 309.004 368.661 307.433 368.661 305.758V305.19C368.661 303.671 368.661 300.511 364.659 298.591C361.927 297.28 360.799 294.97 361.782 292.704C362.147 291.902 362.799 291.176 363.678 290.59C364.558 290.005 365.636 289.58 366.816 289.353C367.542 289.218 368.271 289.15 368.988 289.15V289.15ZM368.988 287.075C367.986 287.077 366.989 287.17 366.023 287.351C364.346 287.67 362.813 288.273 361.565 289.105C360.317 289.937 359.394 290.97 358.881 292.111C357.432 295.45 359.386 298.593 362.922 300.291C365.3 301.432 365.633 303.2 365.633 305.19V305.76C365.633 306.79 364.722 307.655 363.44 308.192C362.184 308.719 361.398 309.473 361.398 310.315C361.398 311.919 365.479 313.22 368.985 313.22C372.494 313.22 376.13 311.919 376.13 310.315C376.13 309.473 375.34 308.719 374.088 308.192C372.808 307.655 371.895 306.79 371.895 305.76V305.105C371.895 303.133 372.708 301.417 375.059 300.284C376.902 299.398 378.285 298.132 379.008 296.67C379.731 295.208 379.756 293.626 379.079 292.154C378.402 290.681 377.059 289.395 375.245 288.482C373.43 287.569 371.238 287.076 368.988 287.075V287.075Z" fill="#5E9C76"/>
<path d="M368.987 348.287C352.308 348.287 338.737 338.979 338.737 327.537C338.737 316.096 352.308 306.787 368.987 306.787C385.667 306.787 399.237 316.096 399.237 327.537C399.237 338.979 385.667 348.287 368.987 348.287Z" fill="#BAE0BD"/>
<path d="M368.987 307.825C384.832 307.825 397.725 316.669 397.725 327.537C397.725 338.406 384.832 347.25 368.987 347.25C353.143 347.25 340.25 338.406 340.25 327.537C340.25 316.669 353.143 307.825 368.987 307.825ZM368.987 305.75C351.446 305.75 337.225 315.505 337.225 327.537C337.225 339.57 351.446 349.325 368.987 349.325C386.529 349.325 400.75 339.57 400.75 327.537C400.75 315.505 386.529 305.75 368.987 305.75Z" fill="#5E9C76"/>
<path d="M362.937 325.462C366.279 325.462 368.987 323.604 368.987 321.312C368.987 319.02 366.279 317.162 362.937 317.162C359.596 317.162 356.887 319.02 356.887 321.312C356.887 323.604 359.596 325.462 362.937 325.462Z" fill="#FFEEA3"/>
<path d="M362.938 318.2C365.439 318.2 367.475 319.596 367.475 321.313C367.475 323.029 365.439 324.425 362.938 324.425C360.436 324.425 358.4 323.029 358.4 321.313C358.4 319.596 360.436 318.2 362.938 318.2ZM362.938 316.125C358.778 316.125 355.375 318.459 355.375 321.313C355.375 324.166 358.775 326.5 362.938 326.5C367.097 326.5 370.5 324.166 370.5 321.313C370.5 318.459 367.097 316.125 362.938 316.125Z" fill="#BA9B48"/>
<path d="M359.912 337.912C358.019 337.912 356.887 337.136 356.887 335.837C356.887 334.539 358.019 333.762 359.912 333.762C361.806 333.762 362.937 334.539 362.937 335.837C362.937 337.136 361.806 337.912 359.912 337.912Z" fill="#FFEEA3"/>
<path d="M359.912 334.8C360.959 334.8 361.425 335.12 361.425 335.837C361.425 336.555 360.959 336.875 359.912 336.875C358.866 336.875 358.4 336.555 358.4 335.837C358.4 335.12 358.866 334.8 359.912 334.8ZM359.912 332.725C357.187 332.725 355.375 333.97 355.375 335.837C355.375 337.705 357.19 338.95 359.912 338.95C362.635 338.95 364.45 337.705 364.45 335.837C364.45 333.97 362.635 332.725 359.912 332.725Z" fill="#BA9B48"/>
<path d="M379.575 337.912C377.2 337.912 375.037 336.429 375.037 334.8C375.037 333.171 377.2 331.688 379.575 331.688C381.95 331.688 384.112 333.171 384.112 334.8C384.112 336.429 381.95 337.912 379.575 337.912Z" fill="#FFEEA3"/>
<path d="M379.575 332.725C381.13 332.725 382.6 333.733 382.6 334.8C382.6 335.867 381.13 336.875 379.575 336.875C378.02 336.875 376.55 335.867 376.55 334.8C376.55 333.733 378.02 332.725 379.575 332.725ZM379.575 330.65C376.344 330.65 373.525 332.584 373.525 334.8C373.525 337.016 376.35 338.95 379.575 338.95C382.8 338.95 385.625 337.016 385.625 334.8C385.625 332.584 382.8 330.65 379.575 330.65Z" fill="#BA9B48"/>
<defs>
<clipPath id="clip0">
<rect x="543" width="854.557" height="577.897" fill="white"/>
</clipPath>
</defs>
</svg>
