<svg width="70" height="70" viewBox="0 0 70 70" fill="none" xmlns="http://www.w3.org/2000/svg">
<path d="M35.0002 66.7468C52.5335 66.7468 66.747 52.5332 66.747 35C66.747 17.4667 52.5335 3.25317 35.0002 3.25317C17.4669 3.25317 3.25342 17.4667 3.25342 35C3.25342 52.5332 17.4669 66.7468 35.0002 66.7468Z" fill="#FDCA47" stroke="#231F20" stroke-width="4" stroke-miterlimit="10"/>
<path d="M19.6313 51.4903C19.6313 51.4903 22.4358 40.3845 34.9999 40.3845H35.5608C48.1249 40.3845 50.9294 51.4903 50.9294 51.4903" stroke="#231F20" stroke-width="4" stroke-miterlimit="10" stroke-linecap="round"/>
<path d="M23.2212 32.3076C25.3896 32.3076 27.1475 30.5498 27.1475 28.3814C27.1475 26.2129 25.3896 24.4551 23.2212 24.4551C21.0528 24.4551 19.2949 26.2129 19.2949 28.3814C19.2949 30.5498 21.0528 32.3076 23.2212 32.3076Z" fill="#20201E"/>
<path d="M46.4424 32.3076C48.6108 32.3076 50.3687 30.5498 50.3687 28.3814C50.3687 26.2129 48.6108 24.4551 46.4424 24.4551C44.274 24.4551 42.5161 26.2129 42.5161 28.3814C42.5161 30.5498 44.274 32.3076 46.4424 32.3076Z" fill="#20201E"/>
</svg>
