<svg width="70" height="70" viewBox="0 0 70 70" fill="none" xmlns="http://www.w3.org/2000/svg">
<path d="M59.0625 61.25C58.9188 61.2501 58.7766 61.2218 58.6438 61.1669C58.5111 61.112 58.3905 61.0314 58.2889 60.9298C58.1873 60.8283 58.1068 60.7076 58.0518 60.5749C57.9969 60.4422 57.9687 60.2999 57.9688 60.1562V55.7812C57.9688 55.4912 58.084 55.213 58.2891 55.0079C58.4942 54.8027 58.7724 54.6875 59.0625 54.6875C59.3526 54.6875 59.6308 54.8027 59.8359 55.0079C60.041 55.213 60.1563 55.4912 60.1563 55.7812V60.1562C60.1563 60.2999 60.1281 60.4422 60.0732 60.5749C60.0182 60.7076 59.9377 60.8283 59.8361 60.9298C59.7345 61.0314 59.6139 61.112 59.4812 61.1669C59.3484 61.2218 59.2062 61.2501 59.0625 61.25V61.25Z" fill="#58565D"/>
<path d="M44.8438 7.65625H7.65625C5.24 7.65625 3.28125 9.615 3.28125 12.0312V64.5312C3.28125 66.9475 5.24 68.9062 7.65625 68.9062H44.8438C47.26 68.9062 49.2188 66.9475 49.2188 64.5312V12.0312C49.2188 9.615 47.26 7.65625 44.8438 7.65625Z" fill="#B28966"/>
<path d="M5.46875 64.5312V12.0312C5.46875 10.8709 5.92969 9.75813 6.75016 8.93766C7.57063 8.11719 8.68343 7.65625 9.84375 7.65625H7.65625C6.49593 7.65625 5.38313 8.11719 4.56266 8.93766C3.74219 9.75813 3.28125 10.8709 3.28125 12.0312V64.5312C3.28125 65.6916 3.74219 66.8044 4.56266 67.6248C5.38313 68.4453 6.49593 68.9062 7.65625 68.9062H9.84375C8.68343 68.9062 7.57063 68.4453 6.75016 67.6248C5.92969 66.8044 5.46875 65.6916 5.46875 64.5312Z" fill="#8B6847"/>
<path d="M36.0941 64.5312H9.84375C9.26359 64.5312 8.70719 64.3008 8.29695 63.8905C7.88672 63.4803 7.65625 62.9239 7.65625 62.3438V14.2188C7.65625 13.6386 7.88672 13.0822 8.29695 12.672C8.70719 12.2617 9.26359 12.0312 9.84375 12.0312H42.6562C43.2364 12.0312 43.7928 12.2617 44.203 12.672C44.6133 13.0822 44.8438 13.6386 44.8438 14.2188V55.7809" fill="white"/>
<path d="M9.84375 62.3438V14.2188C9.84375 13.6386 10.0742 13.0822 10.4845 12.672C10.8947 12.2617 11.4511 12.0312 12.0312 12.0312H9.84375C9.26359 12.0312 8.70719 12.2617 8.29695 12.672C7.88672 13.0822 7.65625 13.6386 7.65625 14.2188V62.3438C7.65625 62.9239 7.88672 63.4803 8.29695 63.8905C8.70719 64.3008 9.26359 64.5312 9.84375 64.5312H12.0312C11.4511 64.5312 10.8947 64.3008 10.4845 63.8905C10.0742 63.4803 9.84375 62.9239 9.84375 62.3438Z" fill="#E0E0E2"/>
<path d="M31.7188 7.65625V6.87424C31.7488 5.48082 31.2657 4.12495 30.3614 3.06441C29.4571 2.00387 28.1946 1.31261 26.814 1.12205C26.0523 1.04326 25.2825 1.12527 24.5545 1.36279C23.8266 1.6003 23.1565 1.98802 22.5879 2.50086C22.0192 3.01369 21.5646 3.64021 21.2534 4.33987C20.9421 5.03953 20.7813 5.79674 20.7812 6.5625V7.65625H18.5938C18.0136 7.65625 17.4572 7.88671 17.047 8.29695C16.6367 8.70719 16.4062 9.26359 16.4062 9.84375V14.2187C16.4062 14.7989 16.6367 15.3553 17.047 15.7655C17.4572 16.1758 18.0136 16.4062 18.5938 16.4062H33.9062C34.4864 16.4062 35.0428 16.1758 35.453 15.7655C35.8633 15.3553 36.0938 14.7989 36.0938 14.2187V9.84375C36.0938 9.26359 35.8633 8.70719 35.453 8.29695C35.0428 7.88671 34.4864 7.65625 33.9062 7.65625H31.7188Z" fill="#AFAEB3"/>
<path d="M22.9687 6.56249C22.9717 5.30509 23.4094 4.08741 24.2077 3.11591C25.006 2.14441 26.1157 1.47889 27.3487 1.23219C27.1726 1.18566 26.9941 1.14889 26.814 1.12205C26.0523 1.04326 25.2825 1.12528 24.5545 1.36279C23.8266 1.60031 23.1566 1.98803 22.5879 2.50086C22.0192 3.0137 21.5646 3.64022 21.2534 4.33987C20.9422 5.03953 20.7813 5.79674 20.7812 6.56249V7.65624H22.9687V6.56249ZM18.5937 14.2187V9.84374C18.5937 9.26358 18.8242 8.70718 19.2345 8.29695C19.6447 7.88671 20.2011 7.65624 20.7812 7.65624H18.5937C18.0136 7.65624 17.4572 7.88671 17.047 8.29695C16.6367 8.70718 16.4062 9.26358 16.4062 9.84374V14.2187C16.4062 14.7989 16.6367 15.3553 17.047 15.7655C17.4572 16.1758 18.0136 16.4062 18.5937 16.4062H20.7812C20.2011 16.4062 19.6447 16.1758 19.2345 15.7655C18.8242 15.3553 18.5937 14.7989 18.5937 14.2187Z" fill="#8B8891"/>
<path d="M26.25 8.75C26.8541 8.75 27.3438 8.26031 27.3438 7.65625C27.3438 7.05219 26.8541 6.5625 26.25 6.5625C25.6459 6.5625 25.1562 7.05219 25.1562 7.65625C25.1562 8.26031 25.6459 8.75 26.25 8.75Z" fill="white"/>
<path d="M36.0938 64.5312V57.9688C36.0938 57.3886 36.3242 56.8322 36.7345 56.422C37.1447 56.0117 37.7011 55.7812 38.2812 55.7812H44.8438L36.0938 64.5312Z" fill="#AFAEB3"/>
<path d="M17.5 29.5312C19.3122 29.5312 20.7812 28.0622 20.7812 26.25C20.7812 24.4378 19.3122 22.9688 17.5 22.9688C15.6878 22.9688 14.2188 24.4378 14.2188 26.25C14.2188 28.0622 15.6878 29.5312 17.5 29.5312Z" fill="#58565D"/>
<path d="M17.5 55.7812C19.3122 55.7812 20.7812 54.3122 20.7812 52.5C20.7812 50.6878 19.3122 49.2188 17.5 49.2188C15.6878 49.2188 14.2188 50.6878 14.2188 52.5C14.2188 54.3122 15.6878 55.7812 17.5 55.7812Z" fill="#58565D"/>
<path d="M17.5 42.6562C19.3122 42.6562 20.7812 41.1872 20.7812 39.375C20.7812 37.5628 19.3122 36.0938 17.5 36.0938C15.6878 36.0938 14.2188 37.5628 14.2188 39.375C14.2188 41.1872 15.6878 42.6562 17.5 42.6562Z" fill="#58565D"/>
<path d="M38.2813 26.25H27.3438C27.0537 26.25 26.7755 26.1348 26.5704 25.9297C26.3652 25.7245 26.25 25.4463 26.25 25.1563C26.25 24.8662 26.3652 24.588 26.5704 24.3829C26.7755 24.1777 27.0537 24.0625 27.3438 24.0625H38.2813C38.5713 24.0625 38.8495 24.1777 39.0547 24.3829C39.2598 24.588 39.375 24.8662 39.375 25.1563C39.375 25.4463 39.2598 25.7245 39.0547 25.9297C38.8495 26.1348 38.5713 26.25 38.2813 26.25ZM31.7188 30.625H27.3438C27.0537 30.625 26.7755 30.5098 26.5704 30.3047C26.3652 30.0995 26.25 29.8213 26.25 29.5313C26.25 29.2412 26.3652 28.963 26.5704 28.7579C26.7755 28.5527 27.0537 28.4375 27.3438 28.4375H31.7188C32.0088 28.4375 32.287 28.5527 32.4921 28.7579C32.6973 28.963 32.8125 29.2412 32.8125 29.5313C32.8125 29.8213 32.6973 30.0995 32.4921 30.3047C32.287 30.5098 32.0088 30.625 31.7188 30.625ZM38.2813 39.375H27.3438C27.0537 39.375 26.7755 39.2598 26.5704 39.0546C26.3652 38.8495 26.25 38.5713 26.25 38.2813C26.25 37.9912 26.3652 37.713 26.5704 37.5079C26.7755 37.3027 27.0537 37.1875 27.3438 37.1875H38.2813C38.5713 37.1875 38.8495 37.3027 39.0547 37.5079C39.2598 37.713 39.375 37.9912 39.375 38.2813C39.375 38.5713 39.2598 38.8495 39.0547 39.0546C38.8495 39.2598 38.5713 39.375 38.2813 39.375ZM31.7188 43.75H27.3438C27.0537 43.75 26.7755 43.6348 26.5704 43.4296C26.3652 43.2245 26.25 42.9463 26.25 42.6562C26.25 42.3662 26.3652 42.088 26.5704 41.8829C26.7755 41.6777 27.0537 41.5625 27.3438 41.5625H31.7188C32.0088 41.5625 32.287 41.6777 32.4921 41.8829C32.6973 42.088 32.8125 42.3662 32.8125 42.6562C32.8125 42.9463 32.6973 43.2245 32.4921 43.4296C32.287 43.6348 32.0088 43.75 31.7188 43.75ZM38.2813 52.5H27.3438C27.0537 52.5 26.7755 52.3848 26.5704 52.1796C26.3652 51.9745 26.25 51.6963 26.25 51.4062C26.25 51.1162 26.3652 50.838 26.5704 50.6328C26.7755 50.4277 27.0537 50.3125 27.3438 50.3125H38.2813C38.5713 50.3125 38.8495 50.4277 39.0547 50.6328C39.2598 50.838 39.375 51.1162 39.375 51.4062C39.375 51.6963 39.2598 51.9745 39.0547 52.1796C38.8495 52.3848 38.5713 52.5 38.2813 52.5ZM31.7188 56.875H27.3438C27.0537 56.875 26.7755 56.7598 26.5704 56.5546C26.3652 56.3495 26.25 56.0713 26.25 55.7813C26.25 55.4912 26.3652 55.213 26.5704 55.0079C26.7755 54.8027 27.0537 54.6875 27.3438 54.6875H31.7188C32.0088 54.6875 32.287 54.8027 32.4921 55.0079C32.6973 55.213 32.8125 55.4912 32.8125 55.7813C32.8125 56.0713 32.6973 56.3495 32.4921 56.5546C32.287 56.7598 32.0088 56.875 31.7188 56.875ZM67.8125 22.9688V31.7188C67.8125 32.0088 67.6973 32.287 67.4922 32.4922C67.287 32.6973 67.0088 32.8125 66.7188 32.8125C66.4287 32.8125 66.1505 32.6973 65.9454 32.4922C65.7402 32.287 65.625 32.0088 65.625 31.7188V22.9688C65.6264 22.8247 65.5991 22.6819 65.5447 22.5485C65.4902 22.4152 65.4097 22.294 65.3078 22.1922C65.206 22.0903 65.0848 22.0098 64.9515 21.9553C64.8182 21.9009 64.6753 21.8736 64.5313 21.875H62.3438C62.0537 21.875 61.7755 21.7598 61.5704 21.5547C61.3652 21.3495 61.25 21.0713 61.25 20.7813C61.25 20.4912 61.3652 20.213 61.5704 20.0079C61.7755 19.8027 62.0537 19.6875 62.3438 19.6875H64.5313C64.9623 19.6869 65.3893 19.7714 65.7876 19.9361C66.186 20.1008 66.5479 20.3425 66.8527 20.6473C67.1575 20.9521 67.3992 21.314 67.5639 21.7124C67.7286 22.1108 67.8131 22.5377 67.8125 22.9688V22.9688Z" fill="#58565D"/>
<path d="M62.3438 14.2188V54.3156C62.3489 55.2631 62.0413 56.1857 61.4688 56.9406L60.1563 58.6906L59.0626 60.1562L57.9688 58.6906L56.6563 56.9406C56.0838 56.1857 55.7763 55.2631 55.7813 54.3156V14.2188C55.783 13.6391 56.0141 13.0837 56.4239 12.6739C56.8338 12.264 57.3892 12.033 57.9688 12.0312H60.1563C60.7359 12.033 61.2913 12.264 61.7012 12.6739C62.1111 13.0837 62.3421 13.6391 62.3438 14.2188Z" fill="#3F6DB4"/>
<path d="M57.9688 54.3156V14.2188C57.9705 13.6391 58.2016 13.0837 58.6114 12.6739C59.0213 12.264 59.5767 12.033 60.1563 12.0312H57.9688C57.3892 12.033 56.8338 12.264 56.4239 12.6739C56.0141 13.0837 55.783 13.6391 55.7813 14.2188V54.3156C55.7763 55.2631 56.0838 56.1857 56.6563 56.9406L57.9688 58.6906L59.0626 60.1562L60.1563 58.6906L58.8438 56.9406C58.2713 56.1857 57.9638 55.2631 57.9688 54.3156V54.3156Z" fill="#1F53A4"/>
<path d="M64.5312 19.6875H62.3438V21.875H64.5312V19.6875Z" fill="#3C3B41"/>
<path d="M62.3438 51.4062V54.3156C62.3489 55.2631 62.0413 56.1857 61.4688 56.9406L59.0626 60.1562L56.6563 56.9406C56.0838 56.1857 55.7763 55.2631 55.7813 54.3156V51.4062H62.3438Z" fill="#58565D"/>
<path d="M57.9688 58.6906L56.6563 56.9406C56.0838 56.1857 55.7763 55.2631 55.7813 54.3156V51.4062H57.9688C57.9688 52.1 57.9544 52.7965 57.9598 53.4886C57.9651 54.1734 58.0267 54.8549 58.0437 55.5399C58.0612 56.247 58.0499 56.954 58.0099 57.661C57.9905 58.0042 57.9799 58.347 57.9688 58.6906Z" fill="#3C3B41"/>
<path d="M62.3438 14.2188V19.6875H55.7812V14.2188C55.783 13.6391 56.014 13.0837 56.4239 12.6739C56.8337 12.264 57.3891 12.033 57.9688 12.0312H60.1562C60.7359 12.033 61.2913 12.264 61.7011 12.6739C62.111 13.0837 62.342 13.6391 62.3438 14.2188Z" fill="#58565D"/>
<path d="M60.1562 12.0312H57.9688C57.3891 12.033 56.8337 12.264 56.4239 12.6739C56.014 13.0837 55.783 13.6391 55.7812 14.2188V19.6875H57.9688V14.2188C57.9705 13.6391 58.2015 13.0837 58.6114 12.6739C59.0212 12.264 59.5766 12.033 60.1562 12.0312Z" fill="#3C3B41"/>
</svg>
